<mxfile host="65bd71144e">
    <diagram id="So9XlePH8G7_iO15k--E" name="Page-1">
        <mxGraphModel dx="1618" dy="2023" grid="1" gridSize="10" guides="1" tooltips="1" connect="1" arrows="1" fold="1" page="0" pageScale="1" pageWidth="850" pageHeight="1100" math="0" shadow="0">
            <root>
                <mxCell id="0"/>
                <mxCell id="1" parent="0"/>
                <mxCell id="2" value="" style="shape=image;verticalLabelPosition=bottom;labelBackgroundColor=default;verticalAlign=top;aspect=fixed;imageAspect=0;image=data:image/png,iVBORw0KGgoAAAANSUhEUgAAAQQAAAC8CAYAAACe5tCmAAAgAElEQVR4Ae19a3Bd13Xe7R/NdKaTuD/8I/2R/mn/ZJrJdOKZxm1+VM5p3Dxm4tBRxpNpaiWyyYgEEI09sh6WXQ0D2CwtEo/KpmwTaE0SfCAwHhJp0KQsyiR1KerCBEFSoigJuhQfAkj7UqIvyUuAAFdn7ffeZ58HcB+4B1iYOTzn7rMfa397rW+vtffhOTmgP0KAECAEBAI5QoIQIAQIAYkAEYJEgs6EACEARAikBIQAIaAQIEJQUNAFIUAIECGQDhAChIBCgAhBQUEXhAAhQIRAOkAIEAIKgSUTwsDAANBBGJAONFYHlOXW6aIqQnhmeAG2HF+A58erPw5+OAeNOOqEI1VLCNQdASTfev9VRQibDwF0/RzgW68DPP2L6o5GkAG2QX+EQFYRyAQhfPMAwF+PLsCnXlyAT/0UlnycuDkPr99cgNfFuV6/s6oMJDch0PSE0HEQoGUI4D/2zUPu+/cgtwuWfJyfvw+NOEitCIGsItD0hPDMAYCH9wH8zgvzkNs6B7nO+0s+Ju/ehzN37wM7z4qz/O2eq7ifVWUguQmBpieETT8FeOxFgN/fiYRQgdwztyD3zCzknplb9FG4tQDyGGfX887v2twntSIEsopA0xMCLip+ZT/Ap3YJQnji15BruQW59Ys/8h/PQ/7mPPDzAj9jmpUufy/9flaVgeQmBLJJCGtvQO5Liz9e/dU9aMRBakUIZBWBDBLCTcit/SXkvnR90cehmTk4PHMP0p6fPX4Xnj0+mzq/rDdaGSZhz7ZDMBOdoTF3pg/Btk17YNLT2szhbbBp0yZxbIND055MKZIm9yaXZW01Ax7Yn9N7YNMmLTPHwY9Riu5nNsuqIoT9V2bhwJVZ4Oc5cfb/3nCoBH/cfx0+238d1h8qwYEr8fnN+1HaMLl3E2xadgOYhD3M4MPKzo1AGwUw4jB+R3XMTXeMy73dlL8dmYkQ6jdKVT+YZK8hLN1DGL44C1HH9ybvwlOv3oaWwzfY8Xs/LsG/HbjBDryW6ZgH80bVg+lRf8tOCEzp5ezvEgInim2Hbf9lSbO4Y1xReDRVuiMzEUL9RqfmhLBduLEfnS8bYUMF3hJ9eOu4P5zY995diDoef+UW/OGuG/Dvd15jx28O3IZ/OXiXHXgt0zEP5o2qB9PDfzNwaJs0RDzjrOs3QMt1lTP0aXTxdfk9p8MtMLJReTyzuiADNHivssu23BCBlXPJI9y+TOF1a1k5wWBft8Ghw+iWy/4Dl0N5TByPPaf5WYYtLkFxr0XXvyki9JHyRJ4FHkoeJpvGTWJ0yAqhknHIb8xBLpeD3Ma8bvpyP6zBtNwa6L+sk1Veds8pI7Opsp56AWB69xre3kPt0P6QyPNQP7BhdMs67csmzHMmQ4btd0QX5ufhq3It4fh91a+PIghh19sV0Mdd47oCa39Sgn+38xr8xtht+Fcv3YHf7F+Af/0jYAdeYxrewzyYd9fbdnnztxLEuXA9BPc3ZrfSmJFqA2LVCUU2SYGTgaGsnjymKFLZrTWEWELQhmLWE3nN2jfLSCM3ZAQ/IaCBqr6J/itSEL/VfRevSIGcGy4+HpwVsSnCEmOTQEDKyBMIQeWTZCDPZrkT7dzY5T15lgZvEoK8h2esI0QGgiwSSCGThJB7TRv/u/u4N6BIAhZguyQJ59x37g5EHY/s/xUzdjT8f/HCffjcG/dh7QV+4DWm4T0kBMwbVQ+mR/1Zxo6ZIgzHNQD1W1Rs1eMxEsxm5XEE8hICcKN12+J5TeN2KvP9TOqXKMPqVgYnSGOvRVO2NxOq19d4Uprw1rzt6H76++3HyGxRGbpp2Mo4pYcwDf1iNm8/IUor428H7lt48kA4TXkIuRyourBKWZ8iD112zW7XDdQ9yCYhrK3AR6IP965h2OD+9ocMPzxzB3zH/xz9JfyHfy7BbwzcZp7BX7xxH/7pzCx0nbvLDrzGNPQUMA/mxTK+ujAt6i9spI6CuQrPjF0rqaqX5eOzrd+4JdnYM7IsH1WGyWestGv33CODrMx3dvshyMac2bGYjxDcPPbCpiCNTZvAJS6fGP40XkeoHUdmWzZdE8PIIRN9FyAdIRj5xMxuGTNWqEhEzuz2WRq1IgRl+EIat7x73xTauM4oIfwSlEeAYYMRLkiPwbct+cPJ25YR/2DyNvzjwTvwX//fNfjtgRtsvQDDhC+/fZ8RAd5HA0diwDS8h+sKmBfLtB2065P1G/hal2FCsI0idD81IZgxtXm9OEJAYTkpiDpw9nYMxepQ1I9QGb8R2kbnz2MTAjborscYIUaUPGZ6hEfltmPLpiuoFSEA5KHddPPltTRc16DlfXkWHkgkIUSFE64nobvGrjJLCDmDBGbkpGyuKTjhAhKEb0aPIwSZP4oQsKzMY54djNXPkMHjHWX03CCsmU/dU1WwC6asIpY1r+1c0b8WU2YxeVWLtSSEUF2qFYMcFuPBRBCP0w7rtwpnZJv+cEPexXNaD8EsA0YogAuSzFtQhCDDDLuE/BVHCDIPO8sQAglFko6Vgf/ILiF8qRJ6wIeHD/5wIYoQ0JCXL2TAQeBKtm3vHthmuut4S8xmFknIWVy6rY4iyzH2KzS/6zdyDyHJ2Vi2JStPOodk8huhLSPPs8lpy87ja9hfty8nT/MbNcdEE0t6jOyWFCEYRqfS1IKe9g50qODG+Pq33rEIl4siBG+6IgW5TmHLjr8yTAjX4avX7A7FhQtxhICk8Hcv2YuKuGaAYQIeeG0uKmJe0yNwr22p9C+vhyBjadyOc2ckQQjmE3ThhUjp5hvhgSgXipOFKH5lD9fjGonuScJVNYTg2WVQ/QjVK0KuhJX/kLSsHiPU8ODM+26PCQ+nDJxDFRuLedK1t856tlcGa93HdQKdRy0MunkMslH1GGlcLE0ebBvUrMNc8HT6kGlCyO2bh3uyQwnhgpcQJrXLLwkhzbajIgSjvEkKUqTQWSmeoYyYSaS7noBM33PYfA5Bz2Jm/VxZ9fqBMiIzk7iOIgS8bdeToPyeunmSEeezGd8/izM5FAnyPNsOHxJPUvK+hPohjFk+p2CRZaQ8nhtWPfIZCY2tlG3SfA5Byeqpz0hSRsqMcA30n/A/h2DnQzLwzNxqVheLio7hqzqcdC5OmBTkYqQhrnWZbUL4Uhl+dpv3x35IyR82mEbrXrceLMOnd9xg24rseQTjwSTcWcA0PDAP5nXLm78thNP88Mx8rFjCTJ+m6uzkkYRgPymZHflXhqTZIIRRgE/tkP/9eemPLptG615/K3+HGTrO/njg1iLuJuCB1zIdyQDzuuXN34tVDTYrO7Ezq4MIYbFQUv4qEWh6Qvhve+fh07vm4d98dxZyz5Yh13oDcl/2ewAYFsQdptEmXeNCI24t4hH3zIGvnrRj4otTrbJNRQhGGKAekdYhinThQ2GP1aG4H9V6CPWWL072lXOv6Qkht20Wct0VyP2vMuRabkDu764v+ZDPCUgjls8ZyN/ufXzOwNpa9DzHoMriQ0/i/spRD+rJakOg+QmhqwK5b5Qh9w83IPc316s6LOONeGqxFnlWmxJRf1cOAs1PCH/zK8h94ZeQe+g65P6quqMWxp6mjpWjHtST1YZA0xPCwz+chbZ/noWvjlZ/pDHmWuRZbUpE/V05CDQ9IeBLVv/PawCdvwD41unqjpCxRzxHoPIt8f7KUQ/qyWpDoOkJYbUNCPWXEFhOBIgQlhN9apsQaDIEiBCabEBIHEJgOREgQlhO9KltQqDJECBCaLIBIXEIgeVEgAhhOdGntgmBJkOACKHJBoTEIQSWEwEihOVEn9omBJoMgVVMCPwVVbEvjBDvtdOvuVri6LGXXHhefpFQXX6j8fYcIy++kssvN+9TpLysP2E52Es2Yt6iYzRNlyscgVVMCClGtlaEkKKpUBZGIh5CwHTv23H0Cz79hCDfnhMmBPmST3+5kGSUsIIRyDwhfPBBEQ4cGGUvh9yxYwdcvHgR7t1TL1arbuiajhC4UYcNVxo7f81W6L71Gi4fIYh3AUYQTXUgUuksIZBpQrh69RKcPLkDfvrTFti16xvQ2/s16O/fDmfPnoVKpZIwDp6QQRCAfCll+27+LryQgZk1szKemdzMY4UMst28+noPa88wRvWePPFiTBUeWPXIBgQZYHkfgQkywDp4vRGEIL4TENtX2SSdVywCmSaEV145BIcPt8C1a38J+fyTMDX1GLS0fA62b98O165dg4WFhZiBk4YpPmsljEkZn/EhjaqNxDJk3q56/z5KGGpbvr3XJhr2Ou+4WN9HCAYC8YQgQo64+o266HJlIpBpQti/fz/s2vUMHDnyNXj88b+HUuk/Q0vLf4GtW7fChQsX4NatWzGjZhMCMzZjlmYFxexaF0JwDC/UPmvbJATuCWjC8nStSkJghOFi4GmGklYuApkmhKGhIejrewLOnHkGXn31K3Dr1h/An/3Zb8HTTz8N58+fh3K5HDNyJiGY10aRBAMzcsZfejwE17ATCSGNLAl5kjwE/h2AqJAivot0d2UgkGlCmJychB07OmHnzkfh3Lkn4Hvf+31obX2IhQxvv/32Igghavbl6fXwEJqXEEyvZGUoOfUiPQKZJoTZ2Vm2u/Doo2tgYuIpePjhz0Bn5/+GQ4cOwXvvvZewsGh6Bea1AV7CjGvkjL8kDyEeH7rbNAhkmhAQxR//+MfwyCN/DhcufBPOnn0a2tq+AN///vfh8uXLCSDbJBBy2bF0HdcQFu0hiEVOt5zVyQQCSwoZaA3BQnNV/sg8Iezbtw/+9m//GMbHvwaf+czvwNatm+G1116DS5cuwZ078rPQvrG1CSG80i+28+TXeH1VpE2rhYcgvyzsLEZaIlRJCIwU4+q3GqMfKxGBzBMCPoz0uc99mnkH3/nOGvjmNx8DXGxED2Fubi5mzBxCwJzCoBrzHILY7hQShj0ULh+TRRqpRSyerlVFCDVaL/GIRUnZQSDzhPDKK69AW9sXoavrr6C//1F49tnH2LoCEkLNnlhsmvGso9Ei2dCWY9OM9HIJknlCwIVFfB7hgQcegAcffBD6+/vh9OnTLGSIfw5huSCvst26GC73RqreTamya1R8+RHIPCEsP4SNlwDDi9jFxUWKxBYTZViyyLKUfWUhQISwssaTekMIVIUAEUJV8FFhQmBlIUCEsLLGk3pDCFSFABFCVfBRYUJgZSFAhLCyxpN6QwhUhUDTE0KxWAQ6CAPSgcboABECEQ4RLumA0gEiBFIGpQw0CzdmFm5mnIkQiBCIEEgHlA4QIZAyKGVo5pmLZGuM90KEQIRAhEA6oHSACIGUQSkDzcKNmYWbGWciBCIEIgTSAaUDRAikDEoZajNzjUFHEEDHgTrPtuN9sC7ogDE1frzdIAiAH+ugb9yVwc3D867rLRgYJOcp9K6DoH3MKOO2k93fmSUEfInqO++8w16mWhtFzu4gNlf/89AVBNB1rJ54FqDv0QC6x+egzAhBGHH3hHpKb3q4DYLAIYXxAWgN2mB0RmVjFwuVkjbuFHlKlasw2tIA0lNkV08s7bozTwjHjh1jL0XBF6PI49VXXwV8DTuSRnMZiw3+ypSt/oRQ6F0PQesoXC4LPA9sgSDogYm5shpvZrStAQSbjZn8SCcEQTecLMWMQ5o8xRJUCj0QrO+DwjIYbT31JtOEgC9THRsbg4MHD1oHvkHpyJEj7GMtU1NTSklsIAvQtzaAdb1j7KxczbXhQR5rl26oODt52P32MbDzcXfWSvO4mdZ9d0bzKhufDaNdct6vsEsr+yvdY5FPudiB4wbz+x296Jrzfus2XbfadN0lITh5Qn1favsF2LMhgLahi1CS+JTx3ZnSW5DGXoKTXQEEnXk1/oW9rRB0F4RXIfPZ5zR5mB6VC9ATBLC53qGR7GODzpklhImJCRgZGYGXX34ZZmZm1IGvVEOC2LlzJ2Ced999VymETQjnYRBnkCCAzoJwIWdGoS0IYL0RUzKDbRkF/UrUCaYIpsHlO3k9GwZFLlEP1u2mmfEqJ4MeUI7ueDeTRxueraxc/jIw9ZezY0hRSnBxCN3lLUZ8XYTi+B5oCdpg5AN0j4UxdqmWAYTMWj6JTwuMCBd7DttksXsArcMakenhVghUPM8JIQg2wJB0zcd7nH5V077ZDx8+Mm0MtgQBtA3KCYETiSJ+QXK6v1guTR5ZfxkK3QEEzxkeSGgsZN7snDNLCH19ffDGG29AoVCAzZs3qwNfv46EgPdPnDgBb775ZjwhdE8AU3QczFIFTuEgb9gjXEGuVD2Fip6NikIRWgaUu8gJoQdOyVi0dBFGkGxaR+Gqm7b1KJdnvA82BAH0qDi4CMXyHExg+1W6oqUPRhixbTFmr0J/CwStI3AR3WVBDqNXtItdlDJL+YqCELpPQcVwsXk9Rr+KRShV8KO6cobmhNA2fFWXK1+GUcRDGk+17Se5/cUiFHo3QKAIEA3yKHQiCbQa5B4iwTR5tHFPDbZBYOiBPeHofFlKzywh4Beex8fH4ebNm/D++++rAz8Dj4TQ29sLx48fZ5+G9w8IV3g9g/ABZMbdOgjnGdubs7HjAqs8ReBlhmBKzRDCXe06aRCJMDDhwjLDCnqg4Mz05ddxNu2Eo6quJSiWNG5pgMUx2IyzpXSzSxVYgAVusGLGVzOncrF9+IgZ1OqXKx8nhO68sVAnyUXWveT2i3B0Kxq1ibXbfhGKBzqYR2KRUpGPJSwY5F6qwFW2+LhZeFNp8uj2Snn06Kocq2rGuQ5lM08IV69ehaNHj6rj448/VoSAC45nzpyJ9RDaBs5b921CKNrrAmJ2YbN4iBAkiXCFYfVIA2ADZxPC+QF068WaROjcBfmqBtsJG9iimwwXUD4nfmer89N8FlcyC0Kw8PGRhDYQTrxyDcFMt/u+9PYl+dpYW4SvyGAarN2DCDy5UbfCQGiLUssfmedYFwRBfFlLtggZmilP5gkBtx53796tjmvXrtWOEJRbL9YYxOzikob7Gwc4HSEY6wfWTph0v7VSLlZpzLBh7DmcVUW4gEp5YDNzp9X2G1udd402mhACFVb45EtBCEtuP4EQFkkGDFNm1G0w+LavLyItKg9LT9i1yAAJmLqVeUJYWFhgX2jCrzThcf/+/doRAtuCct16vq4QVOkhRM067KEXZxfDHLDU1yps6OCLazJcwPgaV9tNgkClZXG9uSrvIwQRCsXGzcmEsPT2i8Didp+bnkQGIjRyF2wtWdLkMQycl00IX4z8qcduGctknhDeeust9vl3XFPA48MPP6wdIbw/xBbnNri7DszF17HjUjwEtYCoVuf5Cv56XGi0FjFjZq5YxZFhA4YlZrhQBE5G5pYZf9CHhTDK2H2EUITylfBODI/Z5UNAyYRQTfvc83HcdGHIbcMxYYJcMDbxFiSi8E6Tx8CcrWfErqcsdeyWr1zmCeH69etscREXGPH42c9+BoODg2xLEp9TOHv2rLVGoFnar/CWcePil9gyU/F+5wTwp+C0UlplhMIkhQwoB26fs/UIYw2hexz0roehfFrupOcQtDLJsCHkDZTnRB/0GkbL0LSQRRKdHx/ciVmACeg2ZMY4enRGLFIWkwkByZBjuJT2+Q5OS798nqIIY5t1PWqcpHyGt+XDu8fBO00ePhZiB+p1Y6fGO156PPQYNm9aZglheHgY8LuOuK1oHnv27GGEgE8r4rZk9LZjCXC3zF14Ys+4mCvRLMEI8OfKYptNGgA3bGv1Whg7GE/OFfHpNrY7ZytQuPokZTF3PhLyMuMF7KSx28HL8K1C3S/Egcsi1y/8+HClFqvxqrjGoihW89VWLjOScN+X3r7wfNTWsMBfyeJcOH1Pg3eaPEVcqDWfllwBZIBjm1lCOHfuHOzatQs6OjqsA72Dw4cPsy3HyclJ9v8dssDMJGMCuRkGJx9LXr6nBAvQt75WoV36fjdCRzJLCI0Ah9poLmXV41GCyoej0GquBxiEofPVR372fym6jAfaGth2vftGhLCCBrPeytJU9bNwSIY39TH8qP6ycMcKBxvbfpRctUgnQiBCiFh0XTlKXgtDWS11ECEQIRAhkA4oHSBCIGVQyrBaZkHqZ7T3R4RAhECEQDqgdKDpCcHZVaafhAAhUEcEiBDqCC5VTQhkDQEihKyNGMlLCNQRASKEOoJLVRMCWUOACCFrI0byEgJ1RIAIoY7gUtWEQNYQIELI2oiRvIRAHREgQqgjuPFV56E9l4P2EyLXiXbI5dohH1+oie86/ambpNjOGui/LBuYhv6HcpDL6UNhKrMAl83Mg9drdutXyWPW/EZdh8r7UL96Bf/07jWQ25jdEVJwxFwQIcSA09BbRAip4Eaj1YYsyMAwWmA4GkSLtV7uhzUWifia4nXpuqPzhAnHlzebaUQIzTJuRAjJI+FiFGHobKYPkUSS95XSw0EZzLqTpc5UjswTwtTUOzAw0M++w/D888+z7zniy1bT/jE3MNLdlEriuJzMbbTTwrNG2JW13U1Zt5DUVXZPB5iiR7qsor3Q/fDMF3KNHQXnrnG/dsVVnXaf7RBH9sfJo8rqDsW3z+Vt342zOnfhJbbx/df1M/mNPqVy9Rm5JJEGtiH7qdtbSVeZJoR33jkP+XwPnDz59/DSS9+AoaEn4bvf3QT4LsVbt24ljhMnAyMeZUphuqRSuXUeXgYV1U3TvwE8xhlRt1R27uqmUcjobnHZnDqcWZQZlWEsUsFNspJ9tNznkPwAdnthrHzue3L7AjsDX97jtIboYi/rs9cHrL6B7IudJ8oTSEtM0SPVvHcyTQiHDx+E/fsfg6mp/wHDw1+BS5cehpaWP4EXXngBrly5wl7LHg09VzC/YkijEkpuznIew+AxqhG3OkbIZXAV1VHwFB5CdF/EHSGbIhmp6IoAnDZFMddIbUMX0uOCmqrHJ4kPz4Q+e9t3y4hMDB+TdH0yAIRJSIyhKbtnDBkGFgkJOcxyokmGjyc9QqJMJWeaEF588UXYsePrcPz4U7Blyzr4+OP/BA8//Hvw7W9/m30OvlwuRw9GlIJZxuxTco9ReQxRNSzuqVVrRS5OPbUghJBn4pNfSsbvKbkMBQ8rfISRyqrY2ekPS4srF9U+LxNP1FbD+ofEWmGsb7lXPtJz84SIXmaoyVjJyprrnGlCGB0dhe3bn4LJya/Du+8+ATMzfwCf/exvwVNPPQX4vYZkQnBcRLWWIGcin0F5FD9ECMIQZH1MQV3jcOqpkZJZiu4hPT4Tin4LEvB6CAZByBDINVJblZ3+sJtun52tPW/7SySERZABE82Djd0f/OUbf+mFSB0Jl8pySqYJAb/juHdvPzz++BfgF794Av7oj34Xnn++C/AV7PiJt9h1hCUrhEfxXULw1u0ah1MPKyNDlSpUypDFNfSoGc/NVzcPwZDN7KHd/hIIYbFkgI17x8iUCq/jCKEGY+U21wS/M00I+Bk3fO362rV/AW+99QyMjDwKTz65Dnbs2AEffPABzM/PR0McoZz24p5PIRxDxhacusIGpfPoxTunnloRggob2tmDT9as7m2Dy2GuD/jkt43WB6vTH5bFIcFU7fsJIdKAk8jAGRspud1HR06ZiZUNewJ2WZl5ZZwzTQg4BNiBL37xv8Pp009BS8uD0NHxdRgbG4NLly7B3bt3Y0eJDay1kMSVWhuR+xur8yi+q3RM8Y1FRmmkGEIoV9ypx2ssseJH3uT9wrDAUWYhp+6f6cLrGc+r8J6ytpE6/WHSOYbmqYMRDQutZPsRhODDXaRpkvVDwtuQ9UvvwBwfXxrvj69uVl+KdQq/NM2dmnlCwI+1fP7zf7gkQsCh0cbD42rTWKTx+9LMlXzXQ4iq11ZMx4BSEEJqRRSGp8nHUEJBVmoxcWNeYKDJw0sIrAphJHJtxCIcpz8sv0MImJbYfhQhCPIyDNEdO9Uni2B43zn2es3IGj+exSubvKXPvn7qu1m/yjwhHDhwAB55ZA309z8M+/f/Izz99KPQ398Ply9fjg8Zsj5yq1H+FKRZd1hQBuXl1b21hjeQeUKYnZ2F/fv3wwMPPAAPPvggI4PTp0+zkCF2UbHhUFODtUAAZ3rbY6tFrWnr4N6L17tIW0WT58s8ITQ5viRezRFAl12HNzWvPqZCFqIYIUtM1szeIkLI7NCR4IRA7REgQqg9plQjIZBZBIgQMjt0JDghUHsEiBBqjynVSAhkFgEihMwOHQlOCNQeASKE2mNKNRICmUWg6QmBvtQb/aVewoawqbUOECHQl3/Vl39rrVxUX/YIiwiBCIEIgXRA6QARAimDUgaa0bM3o9d6zIgQiBCIEEgHlA4QIZAyKGWo9WxD9WXP4yBCIEIgQiAdUDpAhEDKAGPtAQRr+6CQWSzGoCMIoONAvWdkbGcd9I3LdgrQtzaAINBHWAYum5kHr9f1FpQRoifFxsCoh+U3xqTQuw6C9jGrTD08MCKEzBqBVMrqz/nOAILWQTifWSzy0BUE0HWseizijAyNtnX4KlRK2I4gg9ZR9TFYGO9h5GCRwvgAtAZtMDpjP6u0UCkZxl2AgZYA2obtj8/CQgVKYkxKlasw2lJ/0sssIbz33nvszcp4jhtEupdsJEQIyRgVD3RAEPTAKWnI43ugBQ39Q220xfIcTHQHEKw3vK0jnRAE3XCSkUhUO0ehMwigO2+ShJu3BJVCj113HQg884SAr1zfvn27dbz88svsuwzxZCHdTNulc105JJSQO2e4cpxwkl1Htw7VDlM00w0tAlc+O42Vt1xGW+4g6IAxU0Gw3rV90IfhALqihsyWLGv7YCCFhxBu31RY0X9LPrzP01VfU2DJXeM+7YqrOuP6Kz0EJ48qq2W1+u7gIuXt6O2DdcJ9l7P92HMBBN0FKEuMSxVYgAXhLej6pwbbLG+rsLfVLifLm2fmRfRAoazr8U5k5QL0BAFsrmNolGlCQMP/yU9+AuPj49aBr1TDNy+/+eabMNhHoOMAAA3xSURBVDU1FeFBcCVCY+kaF+7czCi0OfEdU6AWwy2ECTYoOp4TxtA1oX1C5jpqgw7VIdphyiYGufOIVgamfEEAOk24lIOiL+NCYbt1m2xmMknhWBcngk6RR7if3CB6QJacHmrh+RJChjJ+P3euHIFlCS4OtUEQbLFJScyiIx/wmS+EQwjLIpwfwHoCaBkS7jO2KfrbarjU08OtoElQjuUGGJKuucd9T27/PAy2IoG2wIioZ44Z6RhsCQLoeT2q/3LsCrBnQwBB10nh6ovfztqASZBo+IV+MQZmPoPANTmUoYAeyHP1W0vILCH8/Oc/Z2SAHoJJCL/+9a/h4MGD8KMf/QhOnToFFy5ciFBioUTdE8AHvQjFUgWuDqNCbhaKLRShYLiFRTEoLQNiEY67e23SWJH5mfXI2YMbs1YS3s4Csy9UpCkYQiVUg4xttkFbawCte8XCk2tYmzHmH4Vpw0DLc5yoNsjFKkYIbTB6xVDi8T7YgIo9PqdmOhabYvsJhKCVUiq/fS59MMLIdIsxezFFbx2Bi8xdToOlJATDNZcG0zoKV6W7XixCqcIQFP3gY9mm4nscg8swGsI1gJ7YsRSE0H3KnvkPbIEgaIOh9+0+hzA5sJmRmSYOrhtsrOR04Zl0jm5FEjLXGaa57B5SYB6I0r0EeUwvJOV1ZgkBwwQkAjT4nTt3qmNmZoYRQm9vL+TzeeYlhAaOgcOVSA8eB5crdisMsJXkMvCJEe857qgyIEEQIfdTDpacPXHQHbeeySHuy0FG97F1BE7hjLthDyMd27A8BMPqEXKIMkVGCE7syuJZ1zUtwcmu6gmhWLoII44Bbg4CaBu6KGbLNFgKQmgdgimlwO6sK3E1z3ws7RhcGHdnXkwIadrnZSxyR0JCtz9pHcDw2tQEU+RtmouD4UmnCGz+sMKPElQ+5N6qGx6U8t0QBJ1wVOFj4lD9deYJ4d69e3D79m114Nec0ENAQjh27BicOXMm1kMIrUy/PQhtQRsMvs3B5S62iMPFijJzzxUh8AGdZp6FyIfkYMSvbDYTLiyL5x3y4CTUAnvGufuIRlRmMy4feJxBtGH5lRZJz1ocZITQBXlDcbhi22lYzo17/QSapGyS+ETYIGZVGS5gnWmwZCGDgW2xGN1fLScnBHssXUJI075oa+C8pTM8jAnjpto3yCA6rNL4caOWk45OV/XhmJVOQndgeIlyHNm4JpSVeZdwzjwh4CvXOzs71YHfY6iKENgsKghBudjC3xNxuGV4AnTuwvJ8khysWJFPAzyDJAdJGmLwcc0AjZ/NdCJtywHuauvZTyj61qOW0qIyMblk/OohBK6IYcVmLqtlhBFKmqBgZtjA1kFUuFBk6wA8XInHMooQAk9/tQGlIIRUY7kEQlgkGTCZ2djoSUf3w8Sd96nNISev55cwLv76zbb0deYJAdcMLl68qI5KpbIoQtCxOweFzaJSkb0uNjfQuJgbyYF5EVFKXJ4DRhoyTJDrEs91wJZAuvR8baF1/Qa23aVXoIWLr8rKweRyKXfXQwjF94dCcT6urOMeeFx/UiuUChuwH6ZXU4RiSizDhBDVX9lvPKcghFTt+wkhckZPIgNxX+5USBwtHZPPM8jJQRq3eH7B9LCwPC9rhlQmDtVfZ54Q8KOu6BHIo1QqLY4QzCfcxvtgPS66yYUnYUBqoc5ye2Ucx9cWLG9AzkZsVdq3JTcGdnxdhPLr/KGWQMXP0gV3truKRShf4fGlGZZwd9xYjPMRQqkCp3CV2ljLKPSuT7XLIJU5/mzIHLSBpcypsJRrCPZDUrK/6+WCKRqNtV2bghBSte8nhKJnJ0itKeFOj7G4a+HjwZvLbehYUTxfYOqhXK9yFzeL3IO0FqglgdTovOII4cSJEzA8PMw+Avvaa6/B2bNnQ641HzThkg2PsqfcZGzfPY7jK5gW95qley+3hDon+OweyDgOF44mWLwn68AzPnXG6ylBZWGaPWVm3g+6J8B6Wk0orF4rKAKfmTzbXWwPXGx/SrnY1qjePeCuZTg8wMiFb1GK9Y4NIzCKJJEQMjDCcWcxjxLKsCGQXpbMkwpLPyHgQtxCCONWGJ2ROzkpCCFV+xGEoDw4vd1X6EXPzVgzsq714nEIb7bLY+gY4oOZXD3zEo3YqUnc/ly6p5BZQti3bx8cPXpUhQoybNi9ezcjgyNHjsDJkycTdxnaBi6ynQQR2WoykIpsxv6Yaa4strykMiL4YjVZVgJgGzvOArhLZv65swpTeqecaFsRlJSJnZ02jcdcGeGxsgZBGGWtLi1UoIJbKW55Iz/Wx6sztjCd+2pmFP3w1mc17MeSrcV4ZXH6a63K83s2TgJzE+fE9nkZi6hFP7kHp5+zMNeMzGHl1zbu4WY9BhvOFJ7IcKG2dRQuywkragyqSM8sIZw7dw7wy88dHR3WMTg4CIcPH4bjx4/D5OQke7xZKasFlPAQ3EUbK49n4Oh+WFFXAybisWQzfPTrVb10pgB9681Qoz7tZJYQqh8MIoTqMayPUjarXPjwV3ew3vjfjo3rP1vr6TIeoqsTCa9iQuBups89bFaFJLkaZ4B+rFFnzFCxcfKwEMUMf4gQGge+XxmofcJl5evAKvYQVv7gkgHTGC9WB4gQ6uR6LXYgKD8ZbzPoABECEcLq3DWgcfeOOxECKYZXMZphtiIZGu81NT0hhB/6oBRCgBCoFwJECPVCluolBDKIABFCBgeNRCYE6oUAEUK9kKV6CYEMIkCEkMFBI5EJgXohQIRQL2SpXkIggwgQIWRw0EhkQqBeCBAh1AvZNPVe7oc1G/NpcsbnwXpyOWg/EZ9taXfz0P5Qv/5c2dIqYaXyG9dA/2VZQR7a6yazbCP92ZYtfbmVlpMIYdlGdBr6H8pBrskJIb8xB7laEMKJdsjlTEJYNuDDDTezbGFp65pChFBXeOMqJ0KIQ6eh94gQFNyZJYQXDgN8bVf0MZifh7t378L8/LzqrO9ievcayOVy6lizW3+Bl93b2M9ncsyjZnPu7qpy3hlUGLxRd2T5XDvowCFF3SJEkO23715qyBAno3svenZnOHkx4Ij7MbZDBuaJbMwDOyvMOC5WmhoDPZpu/aHQycErZ+DtltXj7/bfHH9sW8rvjBeTz06z5GGyrIH+E3zM1BjWJdzTGKW9yiwh/HXnLPz2o3cij6/+35uAb2DG17JH/XFFCxujVAqpLPI3r0cMtqGY4XqEMhl5QCilrsuTRyiZJg4QBmLIGKpHK5+leFGdVume9kN1i/ZjjF1Vl3QRmoW53FJmafQKHyELGoybpn4DAB8jg6zcPojfsh0Uk7Vl9ikkWxpsJO66bakvZmgUJZ+ZB1j79VoDShoY+35mCeHL3zkFn28vwobtd0LHn379LXh62zhcuXIF8LsN/j9bIX15+GAaxqgU0E6Ts4VSVKaEWlF43a6Sub+lcsfXHVJmrHwpCpVKRo/x+IBKkxYyOhv/SFI1DRdczHgdCnchhzVuoXY9wrp5UmEjCCGW9AHkRKAISRCUK7N3XD2i1jsps4Twgx/8APCV6/j30UcfsZeqzs3h64MBRkZG2Mde8X/Lffzxxywt9I+rBKEMwkBjFVIXYgNqKoe8JRRAuoZ69neV2/0tKxBGyermeVxlCimdLpruKlLGBhOChbXZb9kNB6OoMbQMWhiu6WnI6uQ5qh68H4mNj4x4mjJ+o7xKs2STAkhSdycD436DLjNPCHfu3GHfYfjkJz8J169fZ7ClJ4T4AWAzjaWkQiFVjKvXHpjBK0Jw8hnGnEgIsXX7lBC77FHERAVKI2MWCMEZA4Wf6aE5fXW3O0OE4OT3jp9vLDzjIAiFCEErZE5fLu4qjq2kh4Afdf3EJz4BSyMEU2nCskUSgjL8cBmWElIwTBVKpsom/fbVzcvUxENIJWMWCCF+DMMoSmM3yrlYuL9ZJe541ZYQrDAnLHTDUuJsrlZC1JUQcJ0AP/a6aEJwmdvT2zAhRBmIbai+csr1jCSEdHV7Y02mwItblEonY5RMHrCSkkJGZs+mvn6FwzDHKKPGkLUV5/3ZbfM1GE0Q6bCphhCMhVKBW7ivSYDW537mCQFhwa80LZoQ5GqzsQXlzuJexfDsBLB8Zj0hA5WzkvmQj6PcbHy5kumwwrPQKIxAewmijOsGJ+lLKhmbnBDUIq82Zhk+KXxCROTB1M2TCpvqCCG8y2D2IWnw6nd/RRDCO++8A0888QSUy2WGVKo1BIEpN2YjDlUzuG9RUQ6ENkK+WBiejdx6UUHZLOAhDks5JOGoWDhct/I2RJ6lPoeQSkZBQNhPFQdLGEwMrbUWJwP7aZAiw5hjKOtckodgtq/wCs++chdGLeyGnph0ZZOkofUiPH7VEYIcMy5Tc5ABwplpQnjppZdgamoqdOzYsUPtMty8edOnnZRGCCwPAlFhzvJIE2o104Tw5JNPQtSBpHDp0qWY5xBCWFACIVB/BIgQoC6LivUfuYy2IOJf7R5rt1enecKQjHY3c2ITIRAhZE5pSeBVi0BmQ4ZVO2LUcUKgjggQIdQRXKqaEMgaAkQIWRsxkpcQqCMCRAh1BJeqJgSyhkDTEwIKSAdhQDrQOB2oN4ktedux3oJR/YQAIdB4BIgQGo85tUgINC0CRAhNOzQkGCHQeASIEBqPObVICDQtAkQITTs0JBgh0HgEiBAajzm1SAg0LQJECE07NCQYIdB4BIgQGo85tUgINC0CRAhNOzQkGCHQeASIEBqPObVICDQtAkQITTs0JBgh0HgE/j88YGPGc7DaLgAAAABJRU5ErkJggg==;" vertex="1" parent="1">
                    <mxGeometry x="30" y="-70" width="260" height="188" as="geometry"/>
                </mxCell>
                <mxCell id="3" value="" style="shape=image;verticalLabelPosition=bottom;labelBackgroundColor=default;verticalAlign=top;aspect=fixed;imageAspect=0;image=data:image/png,iVBORw0KGgoAAAANSUhEUgAAARkAAAHnCAYAAACMiCl+AAAgAElEQVR4Aey9a5Ac13UmWB5ZI2m81nhDPxyx41hPWLvzsHdm7FhFrCfkH7acCq3DilkJsRjPOGK8tiUDJtBVtlZaSzOjhwU3RhSCZD9oBSmS3cMHGg22mo1uimCDD4kiADYAVgNNgATxIIBsoAE0CKEogEWwgQYa38a5j8x7b96syqquqn7U6YiKrMy8j3O/e853zzk3uzIH/mMEGAFGoIkI5JrYNjfNCDACjACYZFgJGAFGoKkIMMk0FV5unBFgBJhkWAcYAUagqQgwyTQVXm6cEWAEmGRYBxgBRqCpCDDJNBVebpwRYASYZFgHGAFGoKkIMMk0FV5unBFgBJhkWAcYAUagqQgwyTQVXm6cEWAEmGRYBxgBRqCpCDDJNBVebpwRYASYZFgHGAFGoKkIMMk0FV5unBFgBJhkWAcYAUagqQgwyTQVXm6cEWAEmGRYBxgBRqCpCDDJNBVebpwRYASaQjJDQ0PgD2PAOrB0OrCcqK1pJPP1HQu4d+8C/n5y8Z9dF+fRis9ymhiWhRGoFwEi9+X01zSS2fI80P0y8N/2A//l4OI+rSAY6oP/GIHVgEBbkcw3dwL/fmwBn3h6AZ94DnV/Drx7G634rAYF4zEwAm1DMpt3AR0jwG/130bu+7eQ24q6P2/evoNjt4FmH1k9GYHVgEDbkMzXdwJ/+iTw6w/eRu6+eeS67tT9eW1uAa34rAYF4zEwAm1DMnc/B/z108D//gSRzBxyX38Pua/fRO7r8zV/iuUFFN8zPk06Z/VkBFYDAm1DMpT4/X+fAT6xVZHMV99FruM95DbU/tn7s1vY+7PbaPZxNSgYj4ERaG+SWfcOcl+s/fPST2+hls/fTdwEfWqpQ2Vr/pt9Hg9sP1xztYZXeG0Qdz/wPC55Gr70wgO4++671ecBPD/rKZTh0uHt1euKvlLkyNBFY4sQJnfHMh/efncqRtU6nt22Bmu2ZQFuAp25HHK5HDr3VWu1effbmGSuIbfup8h98XLNH9pefm52Hrtm1ZGem6FzfV0fZ+eRf7GEzwxcFp+OF0qynnFftJNSv7Zpv4TnH7gbdy81yRDREYl4jFsSTGxoEGWN86wDdgw2a7UlLefIXC/JTGySpMEkU/9sNvU5GTtcqp9kfjhzEz+cmTc+8fn3X7+J/7r7OgovviM+vzlSwq8OvSM+9F1fpzJUVrajj7pNeV4bjEtPMpaXkiCZwxi8+2488ILt39TlbTgGWxtOS1Takbk1JLNEY3W6bW9P5pXbEo7r8/iy4dE8oj3R2TmvlzN85gaeOnMDvuPXXnoPv7P1HfyvW98Wn388dB0fGb4hPvRdX6cyX33pvdR2qP3sf9KA4zBkEIeVRzH4mt2KJIJBUFClDfywFcLIe3YtQBhFhTBHEwz15zWgNK9FGJ+/T1cGOtf96LFK0qLxP4DnX6CQhEIx6R3p8Qla0/2/pjwtNRYXH+ld6XCOjtlls+QV49LtaNlir01j9DyFTRrXBDGbLc5iYK30Yij8kZ81GJgBKHwS52s70anLrB3ALJLhUlx2ABO6nmivExNmdzDa1f2JNp1CGU7bnGTuRBC99aQOm+bwM331fT/JDJ68gcG3bsB3XL+rhP/libfx0fHr+B9++D7+8cAC/sfHID70na7RPSqzfryU2g61X9uf68m459SafS0yWEO5JZnYhpW4pgwoYaBKYG1Als+ijVwTuB6cs8LryxWPiTqaZG25kyRDBh0bOtxxeIjZO5aKwgFp7Zp9S0zN8FbNjTEXdjcZSEaTAR03EWVUIBmzbPQ9JpqIjKJ7itjqIJr2Jpl1MaHcerssvZa9MfFc2quJxz4+9ub7eOzNOeMTn39xpyQZIpOfe/AOPvfqHaw7IT/0na7RPSIZKivbieub57aSVTuzCYRKSxIxDM8xInnfMDrRhRPWOHW0FJWMz3/PaVc15JdB95JyTCGZiqGYGodbxpI10W5K/xUvJ+eBirvjlCRjzA0VSsHa7M6XkzEJwU7wViaZqOzMANYoMtHXEv1EZaT3ZMpU7Xubk8xP8cj7CqLbt0XI5J77EsMPH3kfvs+fjP0U/9sPSvjo0HXhwfxfr97B3x25ie43bogPfadr5NFQGSpLdXxt0bXa/jzK7SitSzri3LNyCgNQCWS3TiSTMEjHSNRNy3CjCjrkMkhNyWeu8Ebx9K8JMpAE5npW1vhEX0bfunVrHNojSuaOdPHqR78s0ruJ+zcxjtuUc+gSYXwfSBi/GdYkvIwKJOOU1e1KDygZKmVLNJuSxt/bnmRyhufy1pMez8bI1WjCefjwdYsYHjp8HX+163387qNv438eekfkXyhE+ovjdwS50H0iDSIbukb3KE9DZalOYZfdnm4/nqYs3zwkA2XYgjCS9y0jNLowDUCSjJE30PkDcayNZKgL0bZugwguQRiGIGlfE3X8hm2NLxPJUIcKJy3j3XfDJa80scR1h9ijsk7/JsZRGdV3S0hGhFNxz5E3FF33hWcUMsUhVVy78jcmmS8axPLuHahUMOIcjR0qEdH4PI9KJKPLp5EM1dVlzGPlqXPvJklElNArtUf5LSOMmrPbkSTjJ5OoivNFGJDHQ3KKidN62ne9AqB+kqncvyac2APxjcG+5pfFldlPMrJuS0imiidjjyn2oCjBXKtXwyTzxct45F0HUhU6ac/FPZpEYH5fduGSGJZS+u2082KThTQw14AcI0l4DRIrUTeFSPwk4zMgm9CcWUg/TcjkyKxqWjIqknUN2G/sZtf+ts0S9nf/mFysvRh5FgK7bcPYI4/DCG0c4qiW+NX5F0T5Fv3QXuzFmITihlSubGnnTDIUDj15G+bztVES2BMqpXkymmz+7IdXRFJXJ34pB0MhEn3ou5n4pbK6nu+YNmn+637lprJCocn9dx7Uk4pvPzjnU35Z3yCoKsbgayOWI27HNTz/uDxXF0EyVv7Hbcc9jxK2scweaZKXRDtGmKXwMvtOzomavxTi1p1Ehm4kaqNQp0aSibfCPTtH+zrVNrneLo+PETlpoaocmWQEkZTxlo6TgIqhkpdkDsfhjiaZLFvYEckY9U2yqTJ3ydtKuU1lFoVcpVc1pZEP4nnzOZkUJY+MQuUqKuUp0kiGurXbqdF4oxErg4yI0+9tiPHp8WhifMF8Tsb14uLt5+jZFXPLO+o/w5doLtS2uXiGJ+5P4LD9sI2Hswj4e4mTuUQSZPB1kcxa5zmZBEEBSBBN7TtLNAYmGeWtfPmY2rp2HsxzQyUvyRi7TfldZfzbx98R3ox4XsZ4GI92lOgafagMlTVJxf3uV7Lar2oycf+rKe167T2sgBqaZJyHE1eA5A0VMZ2QGtqN1RiTTEpI5CMXfc0lA/P8v028L8iDvBT60DY17SLRh77r60QwVNas6363ZqruE7nqu7kIao5Jpm5QV2xFJhmguf+7NAZ84nH9Uw/1/++SSwaVzikZTNvU9Kn0TIyvjcVqchSapLjhy4pkorxF2na587RureAs1pNptny1jqfO8kwyTSSZT2+/jX+79Tb+p+/dRO5vy8jl30HuL5Lb09pbqXTUz7FoYtDPwehz9z49B2NtU3ues4nqUuil7tepR1yNEVhWCLRNuJR74CZyPXPIfauMXMc7yP3Z5bo/FiEY+ZhGX19WmsLCMAJ1ItA+JNM9h9w3ysj95TvI/fHlRX0aTSZp7dU5p1yNEVhWCLQPyfzxFeT+w0+RW3sZuf97cZ80Umj09WWlKSwMI1AnAm1DMn/68E0UfnATXx5b/CdBJinPuUTl6rxf55xyNUZgWSHQNiSzrFBnYRiBNkKASaaNJpuHyggsBQJMMkuBOvfJCLQRAkwybTTZPFRGYCkQYJJZCtS5T0agjRBgkmmjyeahMgJLgQCTzFKgzn0yAm2EAJNMG002D5URWAoEmGQagLr4z1bfj/5EbaufMzR+MjG6VdMX+YNFtf4yGcnnqyPkTpGJfoHN/OlFW0w5nkSb9CNHFXGwW+Gz9kCASaYl89wokqlDWPX7rQlCENf9vzyvfw4gjWT0T0Am2qTXiVUkpzrk5yorHgEmGTWF165dxQsvPIuRkaewbds27Nq1C++//z4WFhYaMMnLjWSkPEkSUXKq349N3k/+9GMCnArklSjLF9oCASYZAFeuXMbU1PN4+eWNGB7+Kh599D/j0Uc7MTw8jPPnz+PmzZsVlSEZLtnGmts0IN9jnBKayMazhEJ2Gd2v/U5j43dY3d9o1f0LIjDKCQG0zOTdyH5sklEEQ+FQmndktGPXrQgf31zlCDDJAJiamsTjj/8XlMufweHDG3HkyFcwPv5F/OEf/iF+/OMf45133qno0Whjl695VsZq5CZ0eKHfzle/TnlIhrwOTR5I9q1fd2GGNra8Pml8JGOUq0gy6oetjfEbNflrGyLAJANg//796O7+Bo4f/6+4++6NGBv7d5iY+D/wqU99CiMjIwjDENevX09VD8tohffgegnKC4jIILWpKjd8JOPkVdz+E4SgiKiiLIsjGfkr945cVUbGt1cvAkwyAPbs2YPvfOf/w5tvfhN79vxnnDz57/HCC7+OX/7lX8bjjz+O06dPZyYZi3Aivcli2FHhCl88JON6DFVJpgqBiN6rlEkQlyOyuO8SrVOGT9sGASYZQJDIk08+ht7edZiY+Cp27lyLzs5PYt26dfjhD3+IM2fOZCYZERq5hq92XeKwpl79Wkkko99GWO9Yud5qQYBJBsD8/DyOHDkicjBPP13Agw/+CTZs+A/YunUr9u7di5mZGdy4cSN1zk3vxfweV2BPJsaCv7UbAkwyasZPnDiB3//938eOHR14882vY2Qkj89//vN49tln8dOf/rSiXljE4oYroqb0QJaHJ5OF8BYZLgkMOCdTUWna6CaTjJrs48eP45Of/CSeemoDvvOdz2Ht2v9TJH0PHTqE2dlZzM3NpaqFRTKeHZ6m7i65oZlLcp78iS2vb1iLI5nq7fv65GurFQEmGTWzR48exW/8xm/gySf/Ajt2rMO3v/3H+Na3viWSwm+//TZu3bqVqgNJo1LegnqordnPycitcyWeSzI6H0SyaEKqmphdDMnIsfNzMqnq0nY3mGTUlJ89exYbNmzA3/3dH+Hhh/8fPPhgHn/zN3+Dn/zkJyCSuX379ipSjiYSgSAwDpVWkbIseihMMgpCIpFr167h937v9/Dxj38cd911F1555RW88cYbuHjxYsXdpUXPwlI00CQy4P9dWorJXN59Msks7/lpqnQizKv4UF6N3VOopkOyGqty8dWLAJPM6p1bHhkjsCwQYJJZFtPAQjACqxcBJpnVO7c8MkZgWSDAJLMspoGFYARWLwJMMqt3bnlkjMCyQKBtSIZ+roE/jAHrQOt1gEmGyYfJl3WgqTrAJMMK1lQFY8+h9Z7DcsOcSYZJhkmGdaCpOsAkwwrWVAVbbqsqy9N6z4pJhkmGSYZ1oKk6wCTDCtZUBWPPofWew3LDnEmGSYZJhnWgqTrAJMMK1lQFq39VLaJ/XYD1fcUmyzeOzcF69E9qj0P2GwQB9GfzTn0vPo53xvd1uWBdP4qGPlUts3Mz3Dr14xXLttzaaHuSOXXqFE6ePIm33nqrycq8fJVguSmllOcYhvMBCkPHmjovRAT5HRcwV6L5UQSTH0P0a4OTvYJsbKIpYqgjQGFHVEo+Wbswh1JEMhnKlOcx1R1gQ9OJdGl1j0lGkcxrr70m3oE9MDAA/aF3Yk9OToJ+ZJzIaHka49IqUPMwaQHJkCcR9OLQXEnO7eQgOoICxi4aZEFE0BMg2GB6KbvRFQTomVD1ImIx5yJLmRDl82MoBFsw7m3DbG/lfmeSOXUKr776KsbHx7Fr167E5+mnnxa/kEc/NE4vefMZVbFvvXB7x+kYudmmC64URCi16WbbZSq1I+7pth23nGSy7gcB7JXXr6DCne8c946J2hT3PX259cS5lo2OTh0hW2e/CH8EPkafbt1Ybk0yu+N6nrYjOevof/yeAEFPEWVt4KU5LGBBeTUxZqeHCwjywzimy00OIR/0oliOyyT0IksZaq80jdF8gI2r2Jtpe5I5fPiwIJgf/OAHuHDhAi5duiQ+9P5reh/TI488It5aQOXSQqpjQwVJLvcdUv+QNouxfIDgLmP1EwSTx9il+H/WxAoZbI5WsWQ7U+jVxhO1ra4ZhioJphC3fWkM+aB6PqM8Ty+dKqeSTHk/hQodGIzyFWRU47g3CNC7X9YTJNFhhBdIyqfH1TGiwgvRpwpNzLpKbkk0kmSIlLqKCrNLtOrb4UX9/dvjSJCEJpSwiMGNAYLuA1EoVBzoMBYTtWi4xJqhjOyzhOmRAoKNg1Y+J12eCsQWyby8yrQ9yQwODgrvhQimq6sLW7ZsEZ8nn3wyIhn6fuDAAdAbDXyTL42oF1ORwZYwV7QNVK6ah6xVUhpxHkPKiGU7BYyd14ZfRpFc9cBsW13rGFJKOY4tAeUHdF6BVsc5XNhBxLdIN7xcFCTXMWAkX3feK+SRq7gy1KIRXoSufCE0PlFYQsbgC02EJ0G8R0aiSKZnSp3LcR0iPCKDXET/YhwFjJypYpA7twhC0aRK87/7PpoTg9ShFhWDaLKU0bpUmuhBEHRh9zIlCS1nvce2JxnKv1CYdPPmTUEg9Epa+tC7lrQnQ7mZiYkJvP766+kkkx/BaVNJ9nQLRRw+LpXY9BrsEKEAXUYaYw8OiCSkrCdddbvtia4gdt+VsYyetfMDpbOjKAQxgdWnIIowIqMuon+DGWKUIZ0hkpV2aYxQ0AgvxLgcfKQ3YI/VllGFS8N2iGqNPVxE/9vzCIJK/RMR9mM9jckkujCEmEsrrCph7qL0sraonagsZaLxnhlpwFxVIUtTN1v8nUlGkUy5XBavpN29ezfoQ4Rikgy9uYBeZRsphjFR0oiMmJ3uOSQTWvkYtQqKnQuXZLoxUaVty9BEP4Zxm4YexG375M5yzQqZhPcRh0pU3yJMtSsjwsAEydj4+IjHlkfnZOzdJWvsi+0/sLG2+jcIplJIGdUpHUBPECC/3fD6jHkU5dLKHB8WYWDXS8uXKKJxumPKcM4ko0iGcjAUFpHXQp8f//jHDSQZ7QFMqeSCSi46RCQ9GVvxfQRmGZpqw8z1xFmfZBKzZmUxQibpfRgJz8l+bKT8zKQelgybLPlCFS4ZpEMyyLFWChEykMyi+7exjrCplWCEoU2gm8LWilvuKWUEyWQI3TIYdDSGZVSWSUaRzJ07dwSpkPdCH3oPU+M8Gbmdacb1pAwiT2N4G3WRjHC1AyRWQeE5xUnl+pVPh0xbsIUSoOZuzEtdRn5Gr8IyT2LuxviIUuYhKoVzGUimGf1XJRiVsDYS7wJbsZtUgAxbs5TReIUIxTiqhG7LiDRq1SUmGUUyV65cwaOPPip2k2hHiba0G0cypzFCu03msxZG+KQJoi6SiZK85na4zI8UdszE27OLUFIZMsmQzCJKRXDm9mscPsVeio9kwvJMcgdO5XXkU74ZSGZR/cuktsZeGo7KK/VMVdh100l98zEBXU8n9rOUiUmmSPkhJ2dVqyEv5/JMMopkrl+/joMHD4qH7+gBPEr0EtFs374dzzzzDPbt21cl8WvnHOycTAlzC8Z2tMibdGNKbcnqOL4ukglDlOYWMCt2k+LcTH7HLBb0Q2YpBCMIwV2RfWVVyES7XNazIbQbpJ6IjZ4P6ppSssReipdkQsIE4onXqC7lNCK5M5DMovpXHto98XNCxb6Nya3pKMdleIWU1XXH7RJTljICa7lFXhiZjrbIlzNh1CNb25PMs88+i507d4rtadqi1p+9e/fi+9//viCYl19+WZBP2hY2GTmsR8pDhGJ7wcyJyJ2QOF8yj7LastVkINrBvOV9+NqWTZvbxpJo4rZJHHu3yaccop1o2z1eWZNltey2bKKcaMToeb4sSA/G7otvDLoPt3ostySh+FzKlxi720AN/UsP7d7oOSWJvzEW66szdk+/ekzRMUsZkUw3njr2kfwKv9b2JEPEMTY2hs2bN1uf+++/H8899xxeeOGFyIuh/3GKFGiFTzyPQy4EtBNmhnutxmV8Cz3j1JiwttWyZ+2v7UkmK1BcrpKns3Lvleen0BNsMP4Lu4VjobxcxxguZPA6V7L+McmwR9Lm3hmFgmZY20KSoXDKDbNXoT4yyazCSV3Jqx7L3kKSa5HuM8m0CGg2ntVnPDyn2eaUSYZJps3DpWyGwoRSP05MMkwyTDKsA03VgbYhGeuRBz5hBBiBliHAJNMyqLkjRqA9EWCSac9551EzAi1DgEmmZVBzR4xAeyLAJNOe886jZgRahgCTTMug5o4YgfZEgEmmPeedR80ItAwBJpmWQc0dMQLtiQCTTLPmfV8ncrk1GJiprYPZbWvQua+2Oo0rPYuBtTnkNk3U2OQEOtcOxK92rbE2F1/dCDDJNGt+6yGZmQGsyeVWHMlMbMohxyTTLE1a8e22PcmMFYG7Ryt/Dpy4Jd7LRD8unvmPSSYzVFxwdSPQ9iTzlSdu4de/dLPi56Fd7+LatWu4ceNGujYIUskhl6PPGgxs84RLVhlVTodT7j0jZKEQSrYr288STgnvwmjDL7gKj4TMFCYNeMMl0ZYuQ8fIa3HqW+HhBDq9dfyS8NXVi0Dbk8xffm8Wv7b+PH7rb8qJz29+5V38yp+ewT1PnhZvlKQXwHn/FEFExq/CHisnI8rYORppvJ2IMiCecEkSjFFPlVmzTb1X2itQlouKICLCACIyMchJXDPKAIo86imTM8aaRUQusyoQaHuS2brtBxh66oe4fuNO4nO1fBP3dH0PO0afxtmzZ3H16lXPpPuTpS45CGM1DFM05BJPgmSkQbuEIttepMG6fQuBXAKR5xF5qtG7xOOe++Xzj8UDKF9aZQi0PckMDg6KHxLX8/rVr34Vjz/+uDil9y719vaK++kk4zdEeI1Y9iKMMgolkl5KZNRpbQgyMupp4Ws4CiKwPBSq7CdMJXVq+GOTTHobopxLtDXIzEVXJgJMMopkLl68iM7OTnz84x/Ht771LTGbmUgm4X0oRXCJQBCGkbOhXIxLIm5bVh1dVx8XRzI2McTK6xKBONeEqEjJrWufK5LRddwjk0wMdpt8Y5JRJPPWW2/hs5/9LD72sY/VRjIqRxF5H1pxLAJJWd2tMgC8JLM4MtHiuMdMnowrj2rEJhWVy4m8opSxugLwedsgwCTjhEuf/vSnayQZv1HJvIQmCH9IJb0EXcZDMilGLj2gFuRkBAm6/cixxDtMLskkz6U1SZzc/FLbWFobD5RJZtEko8Me4yE6RQ7x7pIiomi1j+vQ1nTkBXlIxSYr0tRGJVCTMknSM574VfKYxBCVMXaKXM9Gy2g+OSzH4RJWG1teGw2dScYhmdHRURw4cECoQKacjFYWK3/ie05GeQBRjqITE5WM2CAkaaA6F5ODafS6e/coDL9q/kMRjZbJ95yMNS5JQAnii0jVIEy91a3bNkjJlZXPVzcCTDKDg+jr68Nrr72W+ExOTuK73/2u2F06d+6ceCBvdasDj44RaDwCTDKDg/ja175W8fP000/j/PnzePfddxs/A9wiI7DKEWh7klnl88vDYwSWHAEmmSWfAhaAEVjdCDDJrO755dExAkuOAJPMkk8BC8AIrG4EmGRW9/zy6BiBJUeASWbJp4AFYARWNwJtQzIhv1S9qS9VZ3xDxjfFxphkUoBho2GjYR1ojA4wyTDJ8ArMOtBUHWCSYQVrqoKxN9AYb2Al48gkwyTDJMM60FQdYJJhBWuqgq3kFZhlb4wXxiTDJMMkwzrQVB1gkmEFa6qCsTfQGG9gJePIJLMaSWayH+s7x9uQPMaxOQiweWeTDZvwDTZjPNId2W8QBJCf9eifdGVwy8iy6/uKxjxVL1PsW49ghc1t25PMqVOncPLkSdAPia/k1SKWvYj+uwIEXROrZDyusVY6n0B3EKB7T6Uyi70n8e2ZnEdZkIwihp6p6LHd2R0FBIFDNJNDyAcFjF2KiokvC3OleJ4ylCnNXcBYRwuINCLQxeIVgklGkQz9Mt62bdswMDAQfeicfh3vxIkTIDKKDXnxwDevrWMYzjPJNAvfYt8GBPkxzJSVDuy8F0HQi6n5cqQfgghoDrYY3uRLXQiCHhwoVdCdLGXCEuaKvQg29KPYQCJoFl7ULpPMqVN49dVXMT4+jl27diU+9Kt4r7zyCo4fP47Tp09HipSYFOFCa3c5QLDOVQLXFTbd7RDhzs0ILBc8RKjajN1/2cbmnU5bkfvsXFftSRe7H/3rlHyd4xjvTJfRduFNo9D9m9fM70XZRySPvievx+2qclF4ETghgLy/uY/CEimzi0Ecmpg4ak/GwSFFnriNrP0XMbgxQGFkGiVt4OV5ANqr0eMt4UC3TfTF7XkEPUXl/ehy9jFLGaF35SJ6gwBbmh0W6jEu8tj2JHP48GFBMD/4wQ9w4cIFXLp0SXzeeecd0A+JP/LIIxgZGQGVSw2pBEEE6JmMXeEpUjJNNJqADJd6qoeMxzCQPd0Igm5MmBN6fBgFy/2XRhQEGzGi3e7JXpEHkEZYxjxmMUarqOhLKv+xIXLfA3SMqPdnz5dR3k/1OjBo5g7EqlzA6FnDhTflCal9YF6v4tY9MpgSpkeor3uNfAWR5SA6At2uIpjuOLzApTExzpiElDcWdGBUjVP0qXDM74jfAz67I2/gWA0fknEx/ZvjsAnCXnTGcW8QoDCsFyVJThapBQHi8Uq5iMAql9F9llEk/bnH8JQSc6HLLv2x7UmGXlNLHgwRTFdXF7Zs2SI+Tz75ZEQy9J3eYHD06FGvJzN+jzRq0/jEArcwJ1a88S2BcLFnDZe6PD8lVqONOvFXA8kUdlzAnHa7yzOSVCKFS4ZLkmR6cciM/9Vq2DEQJx7FOPKjmNZt16G4pbOjgjDuNVbZ4kAHAt2uIpyx83F4EZamMWyRsGwAACAASURBVErEeN9uha8aQ8+heJxhCNnOGC4Y4yjNLRiehCSZivgstv9qIQ/J2bcRQUSqZOS70UUeWX4MET0miDVLmZgwTg8XEHQMrYiQqe1JhnIwRDI3b94UCn7mzBnQZ3Z2NiIZys1MTEzg9ddf95CMu2rFiiBXtyKGOgIE3QdiF1sYr1qNNg5KRamBZHomTE/DJRX3PIQgmfwITluk4fQfqnGYoYBV3h1XyrkmjIj0xrGFVnXdbmkOC1iQ5KE9PB02RclqOYbYE6C+lDeQwNGUQ5JMRXzq7j/E7vuIKFwczf512BvAIjrlAUItOkIvSnO4IBLEW5TXJ73EymXivkoTPQiCLuyuZ45aXIdJRpFMuVzG3r17sXv3bvEhQtHhEpEM5WWOHDniIRmfYsfKEIY+g5H3J7pIaYdxjCa9BpKxd09cUnHPNcmofgwFK5+nMEWFTFVDJXNMlb47IVOiXScfI8I6FeK5JDN0zMA7Hcc4VJFzURmfevsPYc2XgWPUvwqbCztmYe0a+cqGISRR5DFkhqxO2dQyQl8q143kctps9XUmGUUylIOhsIgIhT4//vGPayKZ/PY47LAnURl9FArEBiqUVq/MS0AyOkyhkKkRoZIetxkyJdrduUWEEtFWrgghXWJUhOIhmTikinHU/YZhBpKpu/8qJFMjwQiZxZwXMHzcNxZ1La2MuF5lt2qJyUXPC5OMIpk7d+4IUiHvhT63b9/OSDKnMWLlE1yFUTsNifjZCbOE0jgrk9jSNJ/7yGBEynMyn5OR4VLSk4kStRu34N4OI6RZrHJGIdNmmQDVoRLlK2iXRedndD8iT2LuxvhIJg1HE+/q+NTffwiRB/GFKNUIJrFLKGW2ZMlSRuMV4VgldDPKa4NfiiOTjCKZK1eu4NFHHxW7SbSjRFva2cIl9dyC86Sp2DZWu0cyLLG3ScUWcmAkY8+MiIRpnIiNt2Fj97+6EenwLBvJhNBeh52oNA23nu86ZKLdEr2rJNuR7r+5/aoeHqS8TETEPpIJoXHcoJPlZETCwPWDb9XxWUz/EitnIVDkUDFEKs3hkLubqIiptyg3B8IsZQzSEPkh7QUb15eCRKr1ySSjSOb69es4ePCgePiOHsCjRC8Rzfbt2/HMM89g3759KYnfECFtJV0aQ14nMMWxB1P6+QmRbJS7SdEWZQftNBjPV1AZtR0ty9A2taxTG8nEpKefOk33ZELokCnhXXgVt9pzMjEhReTlei3lecgnYuPtWtpal1v6OpHpJxkyxAVMocfCOY+xSyqRnCVcWlT/chcsXghCiJ1DS554XNEjDGEIUhE5xvh+76T9OECWMtKgpRfcu9/YofPOVzwf1YigmffbnmSeffZZ7Ny5U2xP0xa1/lAS+Pvf/74gmJdfflmQT9oWtpggYQDxczLJB7TU7oEuYu40aAUR+95RAcyV3OdS3HNSohLkLq6hcFE70vjENq+vP9Gv3DqNdn+0LN6jr/8URdZ4ePqV2856nBBJUimyJl05Jn/y1MFR71QJeX3yJfGpv3/loekdQUUe8Uicb87Yo2lRxcxHHrSRZykTUjLdfOrYO1cp87IEZdueZIg4xsbGsHnzZutz//3347nnnsMLL7wQeTH0P05aGVbNUez+GGHbEijhSsJS/8vA0j1tW0T/hgBRmLUC5qvtSWYlKXhDZY2eUaFwQ3sQy2f1a+hYG2qIJcxdpNDYeFq7oe1XngPxv1PdUxWeuq5cfylwZZJpoYIsxQSn9qnDGSvcWH4Kmir/Us6bwG5piFmEesaT48sSH2dumGQcQFbCpLGMTIYrSQeYZJhkVl+eied0Wc0pkwwr5LJSyJW0QrOs2TxKJhkmGSYZ1oGm6kDbkIzzBAOfMgKMQIsQYJJpEdDcDSPQrggwybTrzPO4GYEWIcAk0yKguRtGoF0RYJJp15nncTMCLUKASaZFQHM3jEC7IsAk064zz+NmBFqEAJNMK4De14lcrhMTUV8T6Fw7EP9yfXR9FX1JjLlJY5sZwBoX21wOueizBgMzTt+ijllGfu/cZ5SrWmYWA2tzsOoY1flrjACTTIxFy75NbMohxyTTALxdQ59AJ5HLppjOZ7etQS7nEE0WAsxSJkFwDRjSKmyi7Unm1q1b4nUo9FObrfpjkmkM0oJATLL2EoMkogTxmPU84iTa9pShSzSXa7ZFb1NKKdXel5lkFMnQmyPpRW9bt26NPnR+7tw5zM3NiR8Wr6gqrnttKnGk/ErhLVderr4JRRV1nBXYFED0V+2+x51P1HNlsj0BgORbg4FtFPJRWGH0mWXMYhxxaJIIL9w2cq7Maf1LuRO4mRip74LUDe8mCzFkKSOaj+bW0zFfEggwydy6Jd5xTb+AVywWo9/4pd/5pXP6nd8333wT9BvACwv0tkLPnzIk04CEYmuicRTRuqdWQzd8cst4eq1yKbmCUwV7hfaUUUYfG68KQay8B4BMY7bDQjEmsx3Vl4lbMrxJ6V/UNQgvFQ1ZPzmemPiIPE0ZJLHa95NldIeyfbu+vsdHQqDtSYbeb00vdHvxxRctkqGf2tRvK/jRj34EepvBjRs3vFojjMdYKROFqpCMNFjTYFzDSLSY6YI0WDPh7Kz+XkN1iccvS7Yxm2MC4JCKTXhqSE4ZbfAxSchyybH5IUmQlmrfDJ8ShJmlTNSdg2l0nb9oBNqeZEZHR8VrakulkgiXnnjiCdCHSEeTjH5XNr1lMvnnN0KrXDWSESGJEduL8o6BWg1mPHENtlK72rB0KBeRpm+lrn3MQmJXHmMYkgxi7yH2DHz9y1yI6/0ZzcmvYrwGrokC8YUsnmNamaqEG3fTlt+YZBTJUChEIZH+kNeiSYbeaHD27FlcvXrVoyR+I7AKViUZO4xJU2arzUwntleSbFfdt4jFrqM9idjoqePaxyzEdUnGITbRh1smpa/kWBxAaiAYqpnFM0orU1UWR7R2O2WSUSRz+fJl0BsKurq6xOepp56qiWRcd95SpAwkI0MJ8l4yeAlW45VPYsPwtCvkcj2m7CRTy5iFlA6BeI3TKZNGaN66GooaCYaqxTjpRpLHtDJClsjzS9Zr9ytMMopkbt68KXaSpqenQZ+33347I8m4RulRqSwkA9nOmk2dWGPu4Hiaq+mSNtpNtDtkE4owGp2c1o2q8nHOwue11D5m0byWRTz0psbrbP9KQzYTsb7+K5BCNYLxEqsKvzRRZCmj8dLz5owjus1fOPGrczLXrl0T71ii/At9aGcpW7jk32mxVr1MJKMNx96RWbyOKkKgkMglFGWQcSjkK+s38kSy1PUGnDGLcVgkowzbs9tEOzmxl5TSv2jLJk2dWI7r+tBTYzSwkHNltpWljG47RT59m49MMmkkQztKr776KkZGRvDKK69gZmYGRESpf9oD0PkN03hcgzPKxgYe775UNhIlgc/IUoTT3oGvXX1PPgMjjVu4/5H8FYzIGIesb+xkuWMm2VT5eMwGqQncyNBlf5U9KWpM1jXHJOWOk8d6TOJokIquG983CUaD6JNN3zOOvnEat/krb2GDXkH7/PPPixBJh0p0pPdiP/zwwzhw4ABOnToFeljvvffea67OCIX1KXxzu12prQuCtMij9SMhYjOJrvUSLP8e2z4nQ8RBz8m4r6l96KGH8MYbb4gH8bQXQ3mbZv5xArFWdKW3EXtGtdZfZHnhmRne2yKbW63V255klsPERiHLEq/KywGLmmVYMkNfYoKrGailq8Aks3TYc8+MQFsgwCTTFtPMg2QElg4BJpmlw557ZgTaAgEmmbaYZh4kI7B0CDDJLB323DMj0BYIMMm0xTTzIBmBpUOgbUgm5JeqN/Wl6oxvyPim2BiTTAowbDRsNKwDjdEBJhkmGV6BWQeaqgNMMqxgTVUw9gYa4w2sZByZZJhkmGRYB5qqA0wyrGBNVbCVvAKz7I3xwphkmGSYZFgHmqoDTDJLrWCT/VjfOR5NcrFvPYJ1/SgutVyi/yL61wVY31eM5Mu0ujtjiurQ9WAzxn1j27m54rjHO31yjGNzsB79k41ZcSM5ffLxtdp0wMCLScYAo/VKVkT/XQGCroloAktzC8DCHEpLKpc22hKkOKVIvuoYJcck68jrPZPzKLtjE+QTIMgP45h7LwwhiDcIUBg65shRxvxkD4K7lgspa9z4aOoJk4xHqU2Amvv9GIbzNsk0t79WKL9/TMW+DQjyY5gp2zJoAgkCH8lIT0rc85JMiLA8g7F8gC077XZXPo6rZzxMMg0gGWEonf0itBAGEYU/tpHY98jVD6ANKFBhhB0u6XBlPG6b6njCKQonorbW9aOfzj3lTOMTdSJZfUqt+1fhEoU0JKc4xv1tjgzcP6YwLGJwY4DCyLTloWmC6Z0EpnpcktHY9WIKU+hNI5mwhOmRAoIN7M2Yc7ucvjPJKJKZmJjBF75wDc8/f078pi8d//zPr2LPnmnxruwzZ844rnpslMeGCsLAO0Zm5T+IzJdBhkX5jKB7Kv6nkUtjKAQ6t1DGPGbFKhz0UBkZRoi2orBBeQVBgK6iaka1scHIkwiy6BiD6h1T3YoAonZiWU3lK89TtySr/34Yyv6jMGVPtySyDSNxX0QOUZ7FP6ZwchAdQQGjZ+2wS4SGQoQQE10uychQTeIyge5UkglROjuKQtCBQc7NVJjLtDlu/nUmGWVgzzxzAR/5yB088shZ8bu+fX3nxPnw8GkcP35cEE+aMUqS6cWhOcOIlGGNnTeMuDSNUQqP7tutlCEZWnhJpmcK8zrMKM3hEBn2xkGZHJ7sx8aggLGLcR6nPC9X/rQcR9o4ktd9JOP0dV4S572RN5McU3GgA0HQgwOldIVOkoxZtjLJhKUD6CEifsmsw9+T87k0mDDJhCH27TuH73znCj70oTv40pcuoK/vNL785Vl88IML+MY3zuHFF4/h2LFjSPNmJDGM4LTpEZTmsIAFzJFh6cSmDo+iRG/SIH0kUxg+ba1QpkH6DbiMYiL8qEfBfCTjkMXxYeGdde/R7SfHtPs+8lIcfEysQp8no9ujYxWSCU9jJB8gv73GXTBHhuVilKtNDiaZMMTdd/8UH/3obfzczwG/8Au38Eu/NC+OdP6Lv3gL3/zmWbz++uup3oxNDNo4dE5BhS4iJFLhUa0k4+yqmCQj+g66MeEYjFmmfqX1kYzTVwaSySJL5TLVSEYRW+Qh6jngY/1z3zjsmGTCEEePnsGjj57Dhz98B9/+9lE8/fQ+bNr0Jj70oQV0dR3GT35yAK+99hpOnDhheRR6Ar0ks3MLAgpjLqlcish9uKu8ex7CbssxckUkpkEyyZAxKJwcj0/PDx8bRxj1YMkkE4bCQ9mxY1rkYO6773Xs3bsX3d1H8eEPL6Cv75B4wdvhw4dx8uTJzCRT3J5HkB/FtJmHEHkac8t68SQjk555DFlJz3Hc690SrlXZHJITid/aPZnTw5QY78Jux9syFdYkTvO6/F7Nk9mNriBAz4SRE6vQV7L9WnHh8rVgyCQThhgcvIg/+INr+MAH7uCTn7yCNWsu4nd+pyTOP/Wpy3jooRM1h0uliR6xExM/v6EeUiPj7xhST/QunmRCnQg2HkiLtrO7D1hbxrUohizbGJLxE6FtqIsimckh5IMCRs7YbdY+Xq7fDMyYZDwk87nPnRdkQ6RDJPPgg8dw5MgRvPXWW5k9mbA8j9kdcmtbP79CW9zieZBoVS9hrtirnm+Rj8fXGi6RUtBWdLRtTSTWNSX7iXI/fuOp/pxMPSSTHFOodtU6BtITs4shGZH8dr1G9mS8utoMEqnWJpOMJ1zas2cPurreiMKl/fv3o1K4lPavAPo5EP2gzMJcSRCCfiZGTI54WIVKyJ0ouy3/Y/2iivOvB1Ez1NT8aQx1BHB3pVxlEHUqPifj9C8r2P8WIHbR6HEbg8giYdTumn5gTm+7ewhAVHHGFMtLz9/Qf1v4wiH5oF9vMd7Cj+sZMnn65HKtwYdJJgzFw3ZjY/K5mJ6eN0UO5nvfOylI5rHHjuDgwYM4evRo6u7Skiqrevo2fuo2RKiSzu7Db0spZ2nuQnMe/6exev5dYSnHyn3b5MUks9JXOE9YFgR5jF3SXoQ94UtnACXMXRxDPno6uBFy0b8x5K0HEZdufI0Yz+psg0lmpZNMGMINy3TotewMToRWnv/CrnsOKIxabmS6OoliMbrEJFO3grMyLUbxuG776A+TDJPMstmFYOJZncTDJMMkwyTDOtBUHWCSYQVrqoKxd7I6vZNa5pVJhkmGSYZ1oKk60DYkox+I4yMjwAi0FgEmmdbizb0xAm2HAJNM2005D5gRaC0CTDKtxZt7YwTaDgEmmbabch4wI9BaBJhkWos398YItB0CTDJtN+U8YEagtQgwyTQL732dyOXWYGCmWR1kb3d22xrk1g5E70rKVnMCnVadCXTmcujcl612K0pNbGoGvu64WzGS1d0Hk0yz5ncZkUw9Q5zYlKuDmOrpqc46TcJ32Y+7TriWslrbk8ytW7dw8+ZNzM/Tb6818K9JRtBACSs2teyNrUn4LvtxV5y15XmTSUaRzKVLlzA4OIitW7dGHzo/d+4c5ubmcPv27cozKJQ+h1yOPmswsM0TLs0MYI24r8ptmki0KZTcKLNmm375bFzULROHMBTS6L6VHDOAHS7psEcepbw5xP3MYmCtHkfcBqDrxXLAHY8VXgEQmHRiwsKmeshly2v0p76K+ykY2djY4ZS8Z1/TbXXuSxt3sn++UhsCTDK3bomf33zhhRdQLBYxOTkZfeh8fHxcvLb2+vXrWFhY8KOrjCgy9sj4DIVW1xLGbBimMALjXBtx1C6UIaSW0cTRCZO+bKPVZQxjT8gGJGRxSUaNudJ4JMnYYZc0dFs+P6hVror+DXyhZM4ZbbvzovHT5J5p3FXk4NtVEWh7kqE3EOzevRsvvviiRTL0jiUKoR555BH86Ec/wpUrV3Djxg0PoMrwteKqEnKFjI0gabSATSL+dqwOhVHEbVr3xIkkkNjwZQkvyXjljQ00Ka/pyaTIqow2IkUPEdhjTo4g8xW3bbdv1VBiHFE5D2FrojJJPLNAXDANgbYnmdHRUezatQulUkmES0888QToQ6SjSYbuX7hwAeVy2YOjaXzGbcsI/MYPtbJqUtCue85cjY0m5f2YCIxb6qtfFh/JRESgG3EILGGclidTeTw5TWACA0feyMh1x3UeLXxVSOjDzSODGJsOa53dv+S465SPq0UIMMkokqFQiEIi/SGvRZPMs88+i7Nnz+Lq1asRcNGXNKOxjFYapc5/uEdNMqJNYRRGTsRYVW2yiCQwvrSWZBJE5YYjHgNvlicTE7SBXZS38RNdRIYmgst9V82QdaV8ZZJRJHP58mXcf//96OrqEp+nnnoqG8lYK7wx7dZKm7byG+V9XzXhKM+gqZ6MJW+1nEzaeGQIEpFmy0nGIRMfppoIFQG5RMmejBe0RV1kklEkQ9vYtJM0PT0tPm+//XZGkvHnJyQh6PyJv4x3x8aZTst7cYjAKUoZBe8Dc1Ybqoy7ittlqpFMynhcr66FJCOTzBrvGBl3XOJcPSQpwyabmJhkYuwa9Y1JRpHMtWvXQDtMlH+hD+0sZQqXaCaEMSV3a6wnfpUBRqt8IsnoM1zXY1BljBBKE4tstwaSMZ/edckhIRsN0mlbjTkej0e2VpKMltnMyyTG5eIpz03CZZJpFLXE7TDJpJAM7Si9+uqrGBkZwSuvvIKZmRkQEaX+KaOr6TkZiyyoZWWoUS4hB9MAdN9yBY5zD7GhO0SgKtiruTa0AeH16PyQGzbo3Andl/c8bSsj1m0kZK2TZGx59ajdo4GVTjRHRBNjE49Ll7c9F71ARBgaY4rrun3zeS0ItD3JvPzyy3j++eejMEmHS/Rq2ocffli8svbUqVOgh/Xee++9WrBdpmU1ySQf8lumArNYKxyBticZIg56Tmbz5s3W56GHHsIbb7whHsTTXgzlbVb+H5PMyp/DlTWCtieZlTVdjZCWSaYRKHIb2RFgksmOFZdkBBiBOhBgkqkDNK7CCDAC2RFgksmOFZdkBBiBOhBgkqkDNK7CCDAC2RFgksmOFZdkBBiBOhBoG5Kp5QXhXJZfEs860DgdYJLhl6039WXrbKyNM9aViiWTDJMMkwzrQFN1gEmGFaypCrZSV1+Wu3EeGJMMkwyTDOtAU3WASYYVrKkKxh5B4zyClYolkwyTDJMM60BTdYBJhhWsqQq2UldflrtxHhiTzJKSzDg2BwE272zchDbUOCb7sb7h8rVuzMW+9QjW9aPozLG43jnuJdfxzgDr+4qee0X0rwsQBOrjadeHvehL16Gj028lWXztrcRrTDKOArZ2Esugl+POl5cpyRwfRiEI0L2nkfK1bszHhgoI8sM4Zs7xZD82BD2Ymi8niEQTQmHomHNPEUz3lHredRZj+SRhuLoj2ytg7JJ+THYKvQ7RlOYuYKxjGS80JnZ1fmeSqRM4V6FW5XlTSKaRhFW5rSTJFNF/V4DCjhmUrXm3vZQEyezcgiAoYOy8JqYS5i6OoRBsRP9kmgxFDG6kvi5grqTLlDE/2YvAqlfCXLEXwYakx7VadIpJxlI2rQy1HcnFJjdYHLVr7LjT0i3uj11u4Tb7Qgd5LXLLg80Yd2S0+gnWV1B0NQ4R9mQtF4cEmwd8nowjnzNObRi2jOZKbY9Z4LKuH+MU2mjs1Ji0ZyGu+/rZudmoQ3LbY0yQzOQgOoICRs+WDE9FE0wvpiA9DZdkitvzCPKjmI7IIkRYmsZoPkDHgC+0ItxLmFsAFubMvkKEZ0ZQCAoYPm7oWLkoPJwtyzVsdvRPz3HWI5OMAnBiYgZf+MI1PP/8OdBv+tLxz//8KvbsmRbvyj5z5oyhmIaChCEmupRhdjnutGEYQuGDAB0j6rd1hbs+gW4zHFE5kPyO+Pd3Z3fkERhEI42XDEL9TfYIQ6uY1ynNYQELxopqyy+URfVdiPqeErKRgcfhkiKYnqh3THXT2E0iVEbbMYZoFJfGkI9yO/aYNS7BfYfUgFRIQYTjXjPzGYJg8kYoAkz12LK4JFMc6EiShSIDYB7lUMrmkszu+wIE3QdQsoztGIYpZLpvd6pe+IxQyBD04IBJWGEZRZL9Hn+eyNfOSrrGJKMU55lnLuAjH7mDRx45K37Xt6/vnDgfHj6N48ePC+JJm1hJMr1GnK/d6QB6dZLG1ItD1spmG5w0gjFcMMqUaDkUBhAinOzHxiBA7yQZhCKK8rw0rkW62+NbAgR5s2/t2sckU+zbiCAwxxmiPC9JYaNOlipvYeziXGyUguR07skes8TFDEWUwVn9qGsdQ1ESd/yeAEHPIYs4y/spFMljSIUwNsnI8CVJFibh+klGzG/XhEMmimQS18323O/j2ELk2VOM50/N4+nhAgJjfGm6thKvM8mEIfbtO4fvfOcKPvShO/jSly6gr+80vvzlWXzwgwv4xjfO4cUXj+HYsWNI82aEErqKo9zp/HbpTkuFH8FpTQ7iaBpcdSOQq2Avik6iWBpXF3ZbbbsKXum8iKGOAIWR6ZgYqC3h2muSUfK549SrsFrR/Su12bc55hCSZOyVXRhc3sZKYGwkccsyYy4M3w7N4lDEJpnd6AoCFIZPO2SRlM31ZBpDMkZY5kk6lybII13MHJrjWF7fmWTCEHff/VN89KO38XM/B/zCL9zCL/3SvDjS+S/+4i1885tn8frrr6d6M5WUUCusrfBaCUyDkytjJSOQBqlCsyh/oc+7MVE3ySgDdHdVSgfQE4VLauVO9Kv6Vyu6HKdNEPbqa45Zk4wtuw8rl2RCKx+jdnBEUjWNZGS/ej5smez5cMtUmt8gkydjEIz2St252tNteWF++bScK+vIJBOGOHr0DB599Bw+/OE7+Pa3j+Lpp/dh06Y38aEPLaCr6zB+8pMDeO2113DixAnvKuhXQttwfYYTqhyAzHlUj/ElyRj5GJ2XEUcjhHIVuOr5aYzkA7jGFU4OiVyKJZ+Rj7G7lzsvUsZKK3IjSKaI/g0UdujckMo3CUNtPMn4Q5nqi4IkigwEQ/MjZLc9utVCNEwyYSg8lB07pkUO5r77XsfevXvR3X0UH/7wAvr6DokXvB0+fBgnT55MJ5ngXnsXSBhovJNRnWRKOEBJ1ApxuXSp45yDVkK9Q+M+dKbvVz+qvjcORjkPUeelLpFUliSTJp80Iv0AW5qMsQyNIBlJ4L379ZayXNlFnsbYubExl0RaOVHr93bkmDowaG5Xe3eqXA8jI8GEIeQOViUP0G175ZwzyYQhBgcv4g/+4Bo+8IE7+OQnr2DNmov4nd8pifNPfeoyHnroRPVwicKIaPdDPo9hJiZthdcKYhtc+Tw9exFgg06i0gonwgK1NauTvOZujni4LEBv0Ui0VvVcdP/xMdl3vFWtd5d0kjceZ4hi3waRDI4S2uUZ+aDaXeZzH7ItSUT2mKXnU2u4pAjDTHYb4VPXS3JcNuYlTI9US676SSZMjCk5vzGJxpjGO4HVvUz/Dlbclq/9lXKNScZDMp/73HlBNkQ6RDIPPngMR44cwVtvvZXuyeTHMKa3solw6OlQI8FnK7xWHtvgQrELMyXyIPEzI7RNG28/U8JTbtXqXEyAnkm9c6PbdY5ZnpOhvi9JktN9d++Q55pkwpCe1jW2mEV+pgdTVp5BPh8it7ZjGWlbXj4zYo+5PpKhPlw5ujGl5LeT7fETv6WzoygEjkdiEXIKyYhtbvWUr85J5ccwa8wvGbwgFb3QqJ1AjaV7tB85GMe9tGvoeGYrhUSqyckk4wmX9uzZg66uN6Jwaf/+/agaLuWHMU07HvrPUUCxFb3gehu+R+zlNd0MPM+3iJ2VuED1f0vI8pwMGZvaatZNz8/R8zUugbny+VdpV8b4oTR7zNYWvTJ4H1aiPQs/jxxKft1Xop2qD9DJNnV923gkeWpsYMkiSV14fUQo6gAAIABJREFUejoR7GAZ1VNfrH8l2XmveHxgxtk1tPt3Fg6LHJf3PSaZMBQP242NyedienreFDmY733vpCCZxx47goMHD+Lo0aOVd5eM7dXVohyrbxz6+aUtdv6sUQa7817kK26R+8hAJrEXG+4u57likmmAgiW2VxvQ5nJWmhUtW2kOF+gpah3WNHCuxu/JO/+y4CMV+5rIaXVPVfdGGyhnq+ePSaYBk5d05W1FavWkcn+V8RdhlBPONgKz8nycO8vaXrNkydp/K8oxyTSAZFoxUdxHZeJgfJYvPkwyTDLeHTM22uVrtCttbphkmGSYZFgHmqoDTDKsYE1VsJW26rK8jffg2oZk3OcU+JwRYARagwCTTGtw5l4YgbZFgEmmbaeeB84ItAYBJpnW4My9MAJtiwCTTNtOPQ+cEWgNAkwyrcGZe2EE2hYBJpm2nXoeOCPQGgSYZFqDM/fCCLQtAkwyDZj62W1rkFs7EL9nqAFtepvY14lcbg0GZrx3/RdFnU5M+O+mXp3YVGM/3pZmMbA2h9ymWnv3NDYzgDVGO83AvL42J9DpnfsJdKbNFY0l586JxKpzn2fsK/wSk8xKmsBWkUw9/XhxbBTJNKodr5CLujixKeddYOj6mm3R6+2MPoh8csglSAaAl3yMqiv0K5PMSpq4eoy/Hk+mnn68ODaKHBrVjlfIRV30kkwa5uI6EUwKyQBIJ6dFibmklZlkFPyXLwMPPABMTy9gYWEBZ8/eEeeXLsnzO3fupE5Uws22lMm/0qU2Zt6w2lmDgW2ecEmsflpxPaGJR+GFvELRZT3TRXfvmauxMKioni+cUmSgy2wayBAuyZXdlMGEANArvx6jDDNszHUbTlk3vEp4DzZ51damM1YjNBI4GX2L8ai5JDwlxm64pEbtmS8bj5V3xiSj5uzQIeAf/SPgmWduYm5uDjt3zovzfftu4ObNm7h9+3bq7FrKKZTENEBbkVMbcW8opYyMLyITo211LSYC1ZeZI3CUVip4pTYAJMYgV1jLxXflQ7LviJRcg3PHWvU8iaGFeURExrhc+RRWEZ7Up3Ot5jaV52Hn4zThpQ9KzkEKyaixWHKmN7Ui7jDJqGnSJPPUU+/iZz/7GUZHr4v3ML300lVcu3YNN27cSJ1QUzkrK1BqE86NpFFRAdl2bEjCiE1CoUKO4UjC0AotDSAmJdltQmaXZNw2lbRW/24dUUZ5Fi0iGXtcLobuucZTY6POIzx9WCXbsDCgMXtxUICpQwJv67bswx6LVWDFnTDJABgdBX77t4EPfAD41//6Fn73d+fxb/7NbXH+iU/cwtatZZTLZRFG+WZYKI1WTmWQFHfXvxqlrIaWAvuMgKRzlFTUUYZk1TdGImSOycs1lFSjMNq2MIiaThpldKumL8l27P58eKXUiUKmlPt6Hr0eRbKOSzKpWBnjrVZGtLloYjY6XOKvTDIA9u+/gy984RY++EHg859/F3/1V+/g858v4+d//g7+43+8imefvYKrV69ift5850k8c7bC03Wp9DLBR7kEw4DjaunfUjwH6aXottw+dM5CHqOV0CACSR52Oa+MDhlJo0irJwnMNTY9uMYYTNK4bcyzkYyeF0H+HozradMdt8Qq9o40DuaxWhm3TbPuSvzOJAOIfMv+/TdFDuaxxy7izJkzeOKJSyJc+uEPz+P8+fN45513UkMmWzldNdBkUFnx7Fo+o3FdcVkmIhO7gfgsQTKapOIiiW9ekqksvx+DJDkk+sp0IdmO3Z8Pr2Qd6kqTns/Q62nTJQRfu+4Qq5XRMrr1Vuo5kwyAGzdu4+WXZaK3r+9tHD9+Do8+ekWQzMjILGZmZoUnQwlg35+tnJ4SbjjiKWJf8huIVE5NEv4y1mpNjZok41m9Rb9mmaiO7ke3YZwrYa1xO8QkiyiCXbTrnxyr1XfG0MYcayc93+LIVU+bLsm4oaaCyjrIeUwjbTnWqouH1eLyPmGSAbB9O/DP//kd/IN/APzqr87jN37jJv7pP70lzj/+8Xk8/PC7Ivl769Yt72yayulToIQieltxLgqjNfI6iiCs0EtdMxUy0ZdDIFI+kzA8HpGHMES7UT7Dk2BeBrtLdg4sSUwSYUV8npyZOY8JshaVk20m8PYSnj23Ph2JS/i8svjuSvzGJANgamoBX/nKLfzDfwj8p/90FX/7t1fwJ39yDR/84B2sX/8OXnzxsthxypqTkUpk5jDSVq0qKqOIRuZNMj4nEyUuVdsOydBVVz6TpGQtZUz0vIux2kuiicdlG7VoWT4X09DnZMxxUN+SIOshBNWSDJlMwlQ36mozIv94QRA4GbjpfvVR4p+iE5750vVW6pFJRuVkDhyQ4dLjj89ienoaAwOXRbj0zDMXcOHCBUEyaeHSSp389pQ76Y00HIdFEAURVJL0Gy5hSxtkkgHE1vSrr94Sid9t236KixcvYmjoZ4Jkdu16G5cvXxZb2GnhUktnjDtbHALC8zDDxcU1l1a7LrIQsqV4OGkdrYDrTDKtnCTDtY63juPwIwqLavkv61bKv6L7Ss/FNGdY1F8tZCY9rGQI2hzpWtkqk0wr0ea+GIE2RIBJpg0nnYfMCLQSASaZVqLNfTECbYgAk0wbTjoPmRFoJQJMMq1Em/tiBNoQgbYhGX6ReuNfpM6YMqZZdIBJJmRFyaIoXIb1pF4dYJJhkkG9ysP1mHiy6ACTDJMMkwzrQFN1gEmGFaypCpZlpeMyq9sjYpJhkmGSYR1oqg4wybCCNVXB2EtZ3V5KlvllkmGSYZJhHWiqDjDJtImCFfvWI1jXj2KF8Y53BlXLVF+5xrE5CLB5Z20rOMnnqyPk7hz3GgHJu76v6L0XhkX0r/PIsXNzA8ZY29iqY7a622OSqWB0q0k5SnMLwMIcShXGO9EVIMgP41iFMtUxKYPe6TBfrsFwJvuxIQjQvcepI673YGq+nCASQT5BgMLQscQ9klEQpq/N8jymugNsSCUnR4ZFYcFt0VwwybASRUbaGJKpw7COD6OQIIQi+u8KUNgxg7I1R9JDCYIA9EmSjPSk9P0EcYUhyufHUAi2YNxqtw65uX6kO5UWHyYZpSgHD55DZ+cV7N17FqdPn8Yrr8jzYnFanNNrUtKA9IYi5JYH69E/qZXXNg4ygmR4YBtIMryh++vR30dtk5GZ7et+/EefjHq1F22t68dQVU8mSyhkl9H9jlO4pojBklvgJAlD3Neh0eQgOoICRs+WDNw1hr2YwhR6EySj8MuPYfYSEYnHO6L5Lk1jNB9gI3szBrZ+vUnT+VquM8kokqHf8v3IR+6gr+8cjh8/jv7+GfVKlBAnT57EqVOnUifk2FAhGWbs6UYQFDB8nCZPGUf3VPzvcZO9DkkoA+mJy5BbHwSbjRV3At3CULshSy1grpRNOVwZJcGQscq/2ZEOSQIVw6UsoZCUUXsQol+S+b5DuieM5QMEd6n8UHkeUITQOyniLIFzcaADQX4U09b4SqCoD5hHOZT92J6MlE+EhV7vSGNVwvRIAcHGwYo5qloMictqbJNHJhmHZB544BQOHz6Mhx4K8eEPL2Bw8Dhef/11nDhxYhEksxtdtOoOn47bIONCTBLFvo0Igl4r/1Cel6t1vOIqw0qEEMmJdZXeIpnJfmwMAvROkrHKuqW5C9L4K5JM9X5CZfw2yZjjKmGuSATbgUHt5SUIoYjBjQGC7gMVckg+kjHkS7Rp3AtDlCZ6EARd2K3G7+LF5zZei8GDSSYM8dBDb+O3fuuGePf1v/gX1/Hbv/0u/uW/fF+c/6t/9R66us7g6NGjImzygW0ZsFZay5Mpo9ijQgLvDo8yqp5iZPSyH1Xvvt2KnKRh9UyYIUQ2ZbBkfKlLEFrRSs6WcIA8p2aQTH4EpzUudLSwCREmCMFDymZ98X1xJBOeGUEhyGNIE12i/Wy4+vSBr9nYMcmEIXbsuIA/+qOfiXdff+Yzl/BnfzaNz3zmbXzgAwv4d//uAv77fz+KI0eO4K233oo9EUMpLQPW1x1DIsdldkfByEsECHT+ITyGYQohopyF871rwiIZ7SXUosymjMXteQRBNya0rOp4etgT9jllqvcpjV/LaPYb1XWwSZJMFQIRMlUpkyAuW/F1n10vOddrHi/Xj+Y1BTsmmTAU+ZYdO6ZFDubee49g9+7d6Op6Q4RLfX2HsG/fPrz22mupIVMmQyIXXSYURG5CE458zkORjJGPUQkMeYi2cG0Drja55n1TRhkqJElm933N8mScbfFlQzIFjJxhkjD1pBnfmWTCECdOnMaTT54TJPPd7x7Fj360D/fcc1yQzIMPHsa+fUXhyVAC2DcJwoCd+F56Czrxm1RkIpwpCqFEKKRClY4hJxEpE8bxA2eNIRkZKgS413pgroihjuVCMqcxQp5dFCYm8dO5Hzvxa5Sr5smIkLEHB6zEslE/ZVX2zT9fq4wbk0wY4v77L+PXfu2mePf1P/kn7+Of/bP38Cu/Mqfejf0+7r47FMnftB0m6RkYRqseLot3l+TOUUwWIUKdfN0vHzTTSd44hApR7NsgcieH5nQOpkEkU5rDIZEjineuZF/LhWTU7k+CdE1lXly4JBYBN1fExOJdRBdLokwyYYidO2fwF39xRbz7+vOfP4+//utTWLPmAn7+5xfwx398Flu3HhE7Tmk5mbA87+RbunBIbMtqT4a2VqfQ4+RcCjtmjSdjZRl69iPOzfRgSmzXauNqEMnQA2nzkJ6U7m/jKMaIeComfu1nYPzKZ8tohmlReTdcikgv/reG0tlRFMwdqAQBLIZkZKK9MDJdYfdKY87HaN4Sc5ANGyYZlZMZHT0rwqX77nsde/fuRXf30Sgns3//fkEyaeESTYKZbxHPcZTmsGBsUYeheobDSLYsRB6Kniy3TLzFLCda3q/pkX2lGL5/KxC76FqehTnMiV31Sv96kKV/u4yvXyJlc/uexhbJov/1QT0w1zGQ9r9Jsp8khgpLgX/KvzeIB/16EXuIGn8+LpZQfPWZZMJQbE2PjcmcTE/Pmzhw4AC+972TgmQee+wIDh48KLaw08IlH7B8bbEGW8LcxeY8/j++xffvCouVl+un6TyTTJ0uYBqgLb0+2Y/1OtxJPWb/14OWyp4F99IcLuzIG1v9DTBk+jeGjjFcSHiRDWg7y5jasAyTzEqedBUS6IjHf4yfKl52JJIBexFuRVv4DSACist0SJah/5WI2XKTmUmGFa0pOwrLTdFZngYQdJ22wiRTJ3CstEuntIz9ysKeSYZJhj0Z1oGm6gCTDCtYUxWMvY6V5XU0Y77ahmT8SVG+yggwAs1GgEmm2Qhz+4xAmyPAJNPmCsDDZwSajQCTTLMR5vYZgTZHgEmmzRWAh88INBsBJplmI8ztMwJtjgCTTJsrAA+fEWg2AkwyzUaY22cE2hwBJplVoQAT6Fw7gNlFj2UWA2tzyG2aWHRLvgYmNq3BwIzvTm3XZretQec+XUfKvGbb4kevW1zM0ZZtMS2tnrpMMqtgLic25ZBb7iSzrxO5XANIZmYAa3I5g2SW0QQuZ9mWEKa2J5mxInD3aOXPgRO3cPPmTdy+fXsJpyq9ayaZdGxaeodJxgt325PMV564hV//0s2Kn4d2vYtr167hxo0bXhDFRaVguVwO4mN6FrSKrx3AAHkcdN+4JwhC10lZ6e0yZn0V3qTUt+v5vAin/qaBusMluy9TRoBCiAiXXA6poY3A0Cengl14QwpDGrMI6+xwSfS1dgATVp+yTUsOYw6iSXXnMBE2OniZHpVXNtlyJWyohLi/aUIeo7nsBAWtVl1Lngl0iv7lUeObim00yNZ/aXuS+cvvzeLX1p/Hb/1NOfH5za+8i1/50zO458nTmJ2dRblc9s+QUrA4T6CUQyuyVkBLSbQCSWUSDVdrRxRSSmW0JRRR96UklMpZqW1lMEa9SKGNtv0Dtq8m+0/KCDG2CgRiN5l+lvAWPCQTERA1YxhhNC6PfKrd2EhdfNR51AaQGFNCNkcPxKiSfWvco74NsnOvRefGuCK9S4whHcZW3ml7ktm67QcYeuqHuH7jTuJztXwT93R9DztGn8bZs2dx9epV79wIJTGVzy3lMzCPQlI122ClQkZKpNq1y7h1AGRp2yeTVtxKY3HHpupUkzFhkIl2Ml5IjM1HMjaZSSM2CDeBswdDEsfqS85FbOQeea3ydL+G+cuZ8rkER225JJckK1FKeHBmWx45W3yp7UlmcHAQY2NjEexf/epX8fjjj4vz+fl59Pb2ivvpJJNB+YRB2xMvXXf7mujUU1YKp5RKu9OuB2KcZ2lbhxX2noyryBEsGb+ky9hakrFx9Y3VJuq0ObQJTJKVHQpawCRIxrybjo0ti6wjrllk786NbM8ld0mMNsmaUizFdyYZRTIXL15EZ2cnPv7xj+Nb3/qWmItaSCYx2eZseohDEoGRX9DkIY6xkUSKTdcVkbhK6Z5naduto8UV1y3l1nfSj6KOlj9FxpVAMjqv4R5N7yWBrYmVh2SyYOObi+Q8MMmka2Btd3K1Fc9WuhKTak+GXtz22c9+Fh/72MfqIhlTERNSpZJMTCaJOnTBo7R02VVK91waQuW2RRnD+5H9u4rslcq+mFHGlUAyFefQHrU404QT1XOxcM9VG+58uedUTFwzCSwlXEosbkLX2JPxTFd0aclIRkvw6U9/ukaSyWCYHpJJMzrL+H31dN7EIIiEkqYoWrJtVxmVS28pt0Ym5ZhRxrTxprSafjlhuBJ/bejS8G2CtcatWrYxS5vDlJDEkM4iA1e2jNjYssjGrXbFJVdG/1z5xmqIuyRfKy3ySyHQCiQZvctgPyBmKbtX2dRqZSb8XCVV59qAaEKE8vlCKoN04nKGsblt65XRqBe1XQvJZJRxeZNM7DUmsI7wkUZt3k94mi7GGbFZFMmY2+hu/0thwZ4+mWScxO/o6Kh4gyRhlS0no1BVExzH84aBp5AM1YwMW+U0/O6vkbvZNKGeOzG8EKNvs37VtjXR6HxKvc/JiPFVkdHsK43ExDiMcXkU1sJMEEAjPJmUOYwIRguivAeNl+eZnwhzXTcDNoshmTXbBsTzMlrvzPnXUi/1kUlmcBB9fX147bXXEp/JyUl897vfFbtL586dEw/kLfWEcf+MgETA41ktU2iYZAYH8bWvfa3i5+mnn8b58+fx7rvvLtNpZLHaDwEmmXrnvOU5mXoFXfX1jBBMu+LJY/XQZtXjtGQDZJKpF3ommXqR43qMwDJFoO3DpWU6LywWI7BqEGCSWTVTyQNhBJYnAkwyy3NeWCpGYNUgwCSzaqaSB8IILE8E2oZkmvEicW6TXybPOlBdB5hkwuogsSIxRqwD9esAkwyTDNiA6jcgxq46dkwyTDJMMqwDTdUBJhlWsKYqGK/01Vf61Y4RkwyTDJMM60BTdYBJhhWsqQq22ldpHl91T41JpgEkU+xbj2BdP4oNaKs9lHYcm4MAm3dWV9CVjEer9EL00zkeLRbiPAgQ6I9xT+OZKCPKbsa4ocPVy9A8rkf/ZOV5ZJIxQNUTUOuxNLcALMyh1IC2au17ZZYvY55+FKxcWTlX5tjiMR0bKiDID+NYM/Vish8bgh5MzZcFyUhiKGDskn4wbwq9RCAO0ey+L0DQM6ULqeM8yoas1cuUMT/Zg+Cuygts25PMqVOncPLkSdAPia90pWb5YwNfDlg0n2SK6L8rQGHHjCKHIgY30vkFzJU0FkQEvQiCjYbHUcRQR4DC8OkKOp+lTIiwPIOxfIAtFbxSJhlFMgcPHkR/fz8eeeSR6EPn+/fvx/Hjx0FklKa4YvXQ4dJkP9aTC7mTjrHLur6viFDc09c8bqZ1X5ZLhhRF9K/TbdAK1S/PnZVqvNMok8GlTY5NhzTyaLve9rWqMiZWUt22MoSdmxEEmzEujrHcyXa14cijhbuxAkdjEe15cNb96TrVcKfy6/rRrzHVcx2GcEMKMc+qXU0yuymcjnQhTZ543IE7X2n9Tw6iIyhg9GxJ6WYJ0qnW5wqvMyMoBAUMH9f47UaXVU9fN49ZylD5EqZHCgg2pHszTDKnTuGVV14B/bbvq6++CvrJTf2h86eeegovvfQS3nzzTZw+7Wd+rUzCLT4+jIJQqC4cUk7oVI9WIPeaEQMrRe+ZjD3Y2R0F2AqnCKZbu7mzGOtQbXdNRCQoCaYXuhTIpa05BzKBbjGOjRhRrreUh/pzr5mG48oI4NKYwCQ2QNl29x6l1Hu6pRFuGIF+2ZzEzMBHE4JxrBqmlosiVOgYKEbYEAGN30OhQlGu/llw1/J1KURVaCxx7olxxhR6ggB6nEIvCMP7tCbMilXfCi8E4eWN8AZIjD2l/+JAB4L8KKYjr8Ukifi7KBf04IAut/Neg/S0bjpYZymj5qJ0dhSFoAODKbmZtieZvXv3Ynx8HC+++CKKxWJEMBRC0Q+Jk2czPDyMQ4cO4cSJE5ay6hXTRzKxCxuivJ/c1QC9k3HMK6/lMaQmRirMGGaMPIWcvABdLymF2bkFQdAbxd+0isxdlAYcaJKZ7MdGp6+wPC8Vt8Jqo8cSHxXJ9ByKXG8tj+mO62uRjGp1HTsvcwSivdI0RvNkbLsVfj6SKWDsYpzXKp+X47q3ghseyxoblH2tjCIR/MZBIyk/jnsJn/0qhyEMtQruwsgLsMYUqnaMOQ1DmWtamJOehCQZZ76KpAuxQUrCizEm+V3dCL39y9Ao6D5QJRc4ji1EdJpUyfvanlf6GC9oLrFlKRNhXTogyDXSAWMhoDJtTzIDAwPYtWsXSqUS6EVvTzzxhPgQ6WiS2b59uwibjh49mplkeiYMl1W5qyNnDGNQiqNdWHNVdl1wveILhcyP4LQ5idqAFcnIVasXRYOsYsXtwm6zbsXvkgisuF0pkzU25blpGcPSHBawIInJDUM0EYY+kjFWWpLLbbeirAauTjlpsLFRF/s2CqLW+GTBXRq5I59Y6Quw5tTpWy4+znw5816WGXChV3aIa4Q3oo7Tf0jhTPW8igytTaILIcbsJN7L8zJBvJHC+jBbmYhkwtMYyQfIb7c9Rn2fSUaRzMLCAq5fvx59bty4EZHMtm3bREh15MiRzCQTGV1kMIbS0DVH2ex8DXk9cZih25roCjy7FccwTF6CMuDIRRehjnaF9bEbE44haEVIHhXJDB0zxuyQQzS2AFrGMHRyRmIHQ4UJFUnGka1BJBNaIZNa/Y1VPQvucq4c+byGb5Od5eFq3N15F+GSnh+1KyQStYa+iDpO/4qoC9b8mP3reaCwOfagk/Os60iiiL1Nfd08ppVROhh5qmYd9mSgPZnLly/j/vvvR1dXl/hQLkZ7Mq0gmfEtRCBjUU5CbO86hpadZIx8TOwR09plbVGmKxwpSZ0kI0I6YwtVbK3aRKjbjojJZ0TO2CvLaiu1XdYImUQoF4dKVC4L7ukkE4e7dp9SnuokU0T/BnMrWXmALhH58PHOj8ahVoKheu4c6bbMY1oZed3yejWpcrgURiRz8+ZN0LuVpqenxeftt99uIcmo7cKRaSu+lqFP7CVI198JeZThaE+mNEFJ3qTyV92JMZRCGkx9JCNieTcZ6cjYWpLROY4ObNnSYYVK5HWJrdwquHtJRoTARr4sgV+I6iQjQx6dH9JEJcJiczfISzJpXkV1ghFhmbFDJvu1ZclSRssbqtDNCqMNPDhcUuHStWvX8MILL4j8DOVoKAncOk+mhAPd5DJviZ+4FA9ZSTc6inXVMwnxg1XyOQlKKkeriE7y0pawnmjVVm8xTqzGCmKuVOb3+khGkpz53EQsY9AxpBKwTtjlM6KGeTL0LIfcZRLbyGaoFGbE3SdfaQ6HxK6hgbMOFdXjBNVJRhGFmZA3wqcokerrX28dR5jKuZN5ncohkk6qb1D5lyjEzccJ8CxlIh2aHEI+SM9PMcmkkMyPfvQjsaVN4RRtb+/btw+vv/66kZ+IDdJSJp9xiGtGjE3GLxQnvlaeV3mLKJfSgdFL6mnNKNal5yCMbesgQMfIlNgWNWNzSibG2+aSqGhrvLYnbOsjGdrJire6Zd8dI7NKHu2FNYZksntnKmQydpW0gWTC3WvkIQjn2R1yp0YQGM0dPV6gnr619EITvjXvNJ9qjqN578aU2vKPFpeU/hNbx2pnMZIlalPOQ/TcESXnVR9RWQrVzafWs5RRY5I7o+lb6W1PMmNjY3j22WejMEmHS+TJ/P3f/z3o7ZE/+clPhGeTtrtk7lDI3RXHoM0dF61sYltBxeDimnyQKk6h0D25JaqVVhqGXW5hbkLsMriuqmg+bqxGgiECtbdjZd+efwcQY7PHq3cvdPe0pSvl0Tkhpx1xU99T5O1pVxODPlq4a1xTjhqPJNHaeELsjDm4++RT/bhjNefKK59oy5x31ZcGi/Jmaux6K5yI25tPUzuL0XNAql7UlPPFGrtb1iQYjWGWMqFMplfyktueZIg4iGg2b95sfSgJ/Nxzz4kQSnsx9OyMVvClOMqtbfPBN3ri1N6SXQq5uM/Yq20tFvo5KSPM1gTRqiMl+o0wyzf+ticZHyjL9RqtjG4YFNA/x9Wya+Q+u+K41NJ9tolsueLBcoUgz/kChWzOv5W0Bhv695C89RClr18mmVYxfoP60W5/7Ak7YUa1flwXOG7I+Ga680u1SnO/PoP1XRNhmcoD+e437xqFetV1hUmmmlHy/SUNEZtnIExircKWSYZJhEmEdaCpOsAkwwrWVAVr1WrJ/Sxfz4xJhkmGSYZ1oKk6wCTDCtZUBWMPY/l6GK2am7YhGWPrhL8yAoxACxFgkmkh2NwVI9COCDDJtOOs85gZgRYiwCTTQrC5K0agHRFgkmnHWecxMwItRIBJpoVgc1eMQDsiwCTTjrPOY2YEWogAk0wDwJ7dtga5tQPR7/M2oMkV2MQsBtbm0LlvBYpuiSzHsWabfgOUdbOhJxObcjD7EXqUyyGnP5smEv1Rnei+LucQOVaVAAAXmUlEQVToXqIdUa4TUWv7Oluqr0wyiWnkC/UgoJWfSSYjeo6hS2JYg4EZXX8CnUQOFtFkI0AxF1Y93WZ8dAkuvtP4b21PMrdu3QL9iDj9ni//1YOAMga1qjLJZMFQYhZjlUIeRES5JPHE9Xx9pbTlFp0ZwJqc4d249xt4ziSjSObSpUvi5W5bt26F/tDL3ugNBnNzc7h9+3Yq7Fa4JCZvDQb20STGrq1wi8U9fc1UHtW0dV+WSyqUVKLIZd40IMIUe8UDtGchy2Xpqx6FUwRD7rqSPSlvEjYLr+RtKbsTAlCxxAotjFDjSUd7nKIfjY/jFdj4mGGeNtIJiauewzR59H06OmVS+xdyZ8Bb65L2bsR5tXo0JzYOHogB6HE2Pyxkkrl1S7zjmt5UYL6mlt6HTef0Clt6Dza9+I1eAOf7s4wmIopYGWKFdq/F5/AYqWjXUhhFMJErbBBOdE0TjNG2MsaIADx9CRkdI/GNNfWap83UstVuJFZwquCs/p4yEud43BI/O++hjcsiBEv2GFMXLzN/ksRLEa4xD/7+PWSZgoesnxxPtMB4iA1qrq0yKR6LaH8xc54it3u57Unmrbfewu7duyu+C5veXHDlyhXQWyV9f9ZkKYU1FVJPfKS01IhjJFYbuhNL+XWdWOlEMVUm8mTcOqotyyicvnV3izqm9Ftfm9JgkxjGYxfjMQxa9OOMyzVSUUbIWWmld4lcjsDCzyU8NUi7DODtX9W1xqbq24ckaYn2fYuOQRSyT9Mz8yw6uiOBV4ypvtzoY9uTDL3upNq7sOn+hQsXUC6XvfhbBOEzNp9iOwZhNqwVRa9GmpxcJZZ1bKPwK7ZLUEqBc+4qb0pR43ffuGtswixuj9Ueo1mOvkvj02FTTCDWvKhKqfhEjcq+XBKw5YkKRx6WnivTQ/L17/NYzdbkdzXeFA/EKp8Jdw9pUyM+vbQab8wJk4wimUrvwqZXppw9exZXr171om4pk2/SfZPpkoyqp5VVEIvTll/RbQOURqQNzj2aq5ZW5LiMJjPvIKtddGStVrzqfRMfX9vivpZdEYtZh7IOnkcLfNdsWbKRjEVsypNw58fbl28slgB6Xsy5sgo4JykEYpWydSS6VVWWqOSivjDJKJKp9C7sVpCMq6BiVh0l8JZRCTwdLkmSyaqgWne0YsdegL6T+ejImrleasHYeJJjSjGarCRT0UOQbVf0ZFLG6s5P7SSj56GW+YtxSoXS0ZGonBjHIuY8aqjyFyYZRTKV3oXdfJLxK7Y0LiO+FkbkKKBSeE0ybq5HT79X4fVNcZTKWrc3k2J4Vhc1nkij7UTnWvd5Eb+soryRs/CO2SGipEj+ubAIxDcPKtdSNVxKzclUIxh1381DOURhyRkNzo+X1BVHn6I6jfvCJKNIptK7sJtPMjqvYEy4Jg8rb+IqmlZMO7cijS3ZVkQgHkOThGbUqVXHmkAyOmFOIWQku5BLjdtIePrKeklGr+pmXcvwZdtZPBmzjMScwrcYQ3///t2lxJz58BfzZmIhySNaYKiOmodYNg9Wqu00+XxdL+Yak0wKyeh3YY+MjOCVV17BzMwMiIh8f9Zk+YxNXHPc0oShx4Qh8zJU3qNE2kjU8xlrtsnnOWKlkhLGSi/zFraR6kSwzmnQ0ZHPN9BK13zjTilv4ZVSRl5W4zcMNy6u7+kxdGLCMbBK/bj4xPhlIBkSQhm8zqGRoYv+DBxT+xd1YzLSxBC1ZT574xKsp98YE/VN4RC1ZxGqLu0fp77byGPbk8zLL7+M559/PvEu7IMHD+Lhhx/GgQMHcOrUKdDDeu+9914jsW9QW9LYEiTSoNa5mWYgsAzmTBCRQXTNGKZqs+1JhoiDnpNx34X90EMP4Y033hAP4mkvhvI2S/nnrpQki7zWGmVZyrGvur7JI/F6GK0ZKXlysffW3D7bnmSaC2/jW3fdfDMH0JDeXFfbcd3jUK4hvbV1I600dAvoFhMck4yFPp8wAoxAoxFgkmk0otweI8AIWAgwyVhw8AkjwAg0GgEmmUYjyu0xAoyAhQCTjAUHnzACjECjEWCSaTSi3B4jwAhYCLQNybTq5eLcD79gnnXA1gEmmdAGhBWE8WAdaKwOMMkwyYCNqrFGxXjaeDLJMMkwybAONFUHmGRYwZqqYLyq26t6O+LBJMMkwyTDOtBUHWCSYQVrqoK148rNY7a9NyaZBpBMsW89gnX9KDagrZWmoGLsQYBAfzrHVzhpFdG/LsD6vmLTxzHeafeTBUuqE2GtMXd0L9GOKLcZ41o/d25uqb4yyWjgF3EszS0AC3MoLaKNlUYuJK9U5gLGLulnr6bQSwq9oonmGIbzAQpDx5pLMmToHWO4MFcS/WTDsoihjgCFHc5bHx3d231fgKBnSk+KOs6jrPWzPI+p7gAbWkCkpCdtTzL0q3cnT54EveRtJRr60slcxOBGUvgLmCtp97iM+cleBMFG9E/qayvt2AqSGcfmIEBvUS9MWbHcja4gQM+EJCb/3CsiGj5dUZ/L58dQCLbE3o0moCYcmWQUydDPbfb39+ORRx6JPnS+f/9+HD9+XPwEp39S1YquXdbJfqwP1qN/Jx1j11a43+KevrY+aYjWfVlu807XSKU7H7nMnf3CvXe9B9utztKX4U5nUrQSpAPnKPyZERSCAoaPu3LH52LV1nh5+hKye+6L66aXRN6AgXFAuBvkJvrR+Dgelo1PgBhnTTK7Ja66/TR59H06OmVS+995L4KgF8WyxiQjlpNDyFv1dH3zSERUwOhZZ15cnEvTGM0H2NgCb4ZJ5tQp8UPh9CbJV199FfQObP2h86eeegovvfSS+BnO06f9q8OxoQKC/DCO0UQeH0ZBKF4XDilHdapHE4t7zTBsRTA9k7GXO7ujANtwFMF0a1d4FmMdqu2uiWjlkgbUC10Kkz3CGCND8vQlZHSMJI1UK10vDnQgCHpwIPJuTAOQ36uFl+X95A11YNAgjDAcx720+u8vy3EKgskboRogcY4xFfMSBOgYUeHFPNVVGHaMIQo6Lo0hH2iikSRD5NVVVHNxiVZ9O7wQGJttIBkq+vsPMX4PhTPFOHxxCUCdu1jKc61L6ujOmSAwp0wQYxLPXQnTIwUEGwebnktse5LZu3cvxsfHK74Le3h4GIcOHcKJEyciQ44nK4SPZAo7ZiIlkkYToHcyjovltTyGlCEJBcqPYSZa3UKUzo4K5e56SRnqzi1iBZwSxkLXSpi7KA0g0CQz2Y+NZIxGXyHF4ER0G1Ry+qUuBEEBI2diAijPowF5pXFsIYLNYEAmfonv5aLI7XQMGMlXZ/WXhnrICNVCuJhKI+/FIZX3EP1MDqIjKGDsog5VQoSlOSwAmBfYK5LpmVLn8v4hwi8ySEV4UbhDOJZRpDIdQ5HRevtXZFmoEs4QqbpYilwLyR7lwGYxlrc9qOL2vFhQeo3FyiVfjXdpghafLuxOITldbrHHtieZgYGBqu/C3r59uwibjh49mplkrLhZhRCmUYd7uoWh67DCXN1lEjBejbr3SDIQhpUfwWlTKZTbq0lGrnamKy7rSgNUCqWMmFbrxu2i6DCuFzEJxiRWm6Iqg42Muoj+DTZ5CVJUZGuHPnGoJsnfxsv1DpJyqXDJIYGJriD2VsMyiJMlKcn8ShS2aY821IuP3X8oQp7qeRXa4aKQysRSjBkLBrHGi8wWFVYLPYpkU3M/L72sRGgk9DJe6JJY1Dt/dj0mGUUyld6FvW3bNhFSHTlyJDPJaGIQEydCqFj5xTWHZEInHyNWIuWm67ZsRdcTqVZe5cnI1TMmqEj5RQjXjQlBUGQkahUU12X5KJwySSzTd4NgEHtri1FaSYoqZBLehxEqkUxWPkat7iLpHOMsSUaFsWocPuKx5VQk4+wuudhbxJaXoZfwGBIkY/evw2k9p3bfNKc1Ylk6gJ4gQH674fUl5uw0RsjjuW+3rb8qtI885UQ9rWOLOzLJKJKp9C7sVpDM+BZaKeM8gVgllRJohXQVXSqoj2SMfEyc4qH1LQrhRKhFMYL404RjJ06TBuBTthqNIqsiGyHT/9/e1exWkSvh83A8QSQeYu5oXgJlNdLoMoIVcGcDgR0zsED8LQCJRCgXsQCxASkDEYIFkZACCkpAHpXtsl3V1e0+6T4NTH+RonO6bZftz1Wfy1WddNM7Y8+Go05xd1fE3UoynUeEHiSTjqQRvphC1utj9d9NMsfBctOdPlFLuUsdSesaNz/hYfddnyXqgWQiyXS9C3v1JBPTjlf/Fs/aBOM64ZhkxJGHFznu8nxcCufspgvcndGh7EZwqZfb1Y5jFBZRWff4yPSr+/VneVTa2Qmp3BQEjlj442SR2bKMvA2fZHg7PUjGx7T0kTTEaVICIB2XlCfT6nnUsIzlZXaN5u2PXzmb5D0sHQxuwWvHz6M7SJ9xsdao3z2QTCSZrndhr55k9tyj03RkKZ5b+P8f7j/xKJNc4f3dEOhLirbt/vgpHHVSIJGDvGVGIcpKz2X4o4b0Wrb/97NKq9YVKBwZyGsqPaR6u76KG0g1zE8SSnT/OZBNxlYcn5goLZLZYQx/Kp/QDnGVEJ/qQTI+liHTv/n4lAOpZv8cIFZHlzqWe+5gm7JunAUjnGM86PccAA/Pv5SZsEhOKqlAa+CDxDrGx5vXiJ8gmRaS4XdhU2CY0ttbW1vu6dOn8kwbF0IokzrieIOKbikHef095drvH/KRJRgVpXD/ehfTokkhyeMo0tY+PfvEE0/5hCoFCENGgWWdcJQaD4HKHUfZJk5r55gNxTWWIIt4ZMjtc1/SEJqk0+1VFfVTgFp7Ddnzyv2fdk9iDItJWaxLMprwTAo98ZrbnnC//PnWffVZqB4kQ9koH/8pZPz3iQuPHGQv0u6fs2C/5Qfh+mLp1y0QTRo7Pdmbso0xUxZxSHXoGK6eCqbYj3+YUnnPfTeAZerNnmSuXbvmbty40XgX9vb2tjt79qy7fv26u3fvnqPrtuxSmRmS6dBoMD5FWmYFoqHrTEGKkdBZn+qHLIZQIkpbF/W+HmyaT4GGTESMGahsg1cQXUGMpTD0ZJzqXkz75h7kt0RoRnuBl1GeFTjO3/SUuIz7PXT7cUyBLHZcVz96+tyGY1X5Oszb1y8NVQs43A/9FTi29h/J8zd+0HIZLI1+M16lvjEuLY8m+GO2Su93roVa/yXqzp5kiDiIaPS7sM+cOeNu3brl7ty5k7wY+vODxoIuAfbQtiG1PfyYM3QcaH98gwvYxT+/KI97E+oRjYESDeWzXKtc09mTzCrBHVs27Yz6GERP144aE1Gp9ORyF6lu+RTyUIObafuJ/0hR6CLFr4o/zhRlKyA7kMwKQF3lomlvWaalRzDYiusenHB19PvBMFzl+iwjm9ZSH8uWaX/suqFjkck8tqweaw+S6QHSKhcAskcgRqzhNz3G13QYJAMF/a4VtKbAKP/+SRokA5IByUAHVqoDIBko2EoVDJ7G9+9prHqNZkMyxVMD+AoEgMCECIBkJgQbXQGBOSIAkpnjqmPOQGBCBEAyE4KNroDAHBEAycxx1TFnIDAhAiCZCcFGV0BgjgiAZOa46pgzEJgQAZDMhGCjKyAwRwRAMiOs+tvLa25xciO/x2cEmT+MiK11t1gs0u/a5fQ2ox9mCnKgb93GyYWbYh6bp2Q/Xo8KLBenNuXQnHPUpsTbf1e615DjZa67JI3WTLVpdDTiDZDMiGDOTtTuhltbLNz6Vpx5vJ7CQFeH9UQkoww9EMOa29jlmW26dSIHQTT9xuaJSLRjmflTE1wuGf/b7Enm6OjI0T8RPzykN+ngZxkEvDKrHfHH9+r6GfIyODXrBgJJ5Oxa+vReYpN4crumZNcmS1f1G0Lh3ejyEa9BMpFk3r17565cueIuXbqUfun69evX7uDgwH358qUVdmFYfvHW3MZW2OXZtfW7e9zpw71SeaJoUR7c4qZCBYVkuYtTG969lzuedqv79DWOwlnEo4ETeOlCPhIo8qJqjR1aHdUWCzlP3w/jo7wCL6s4mmSc2eA3A65cp208XE6fqk5r/37cPfBmXWLvxl/X2hGBSRwMiF1vMrIbL3UXJHN05Ogd1/RvNun/+PJ7sOmTrukVts+fP3efPn1y9AI460cYTSKKrAxZofW9fO1iu6zsznm5QmEiwSRXuCCcdI8JppAdjTHJNvrqQw7W3MU9Q64o73vR2MGpodr9jToB5zzvgJ+Me7BxCUIQ486YarzKY2ATr+bxxu7fIMsWXEL75nzSBmMQm4trLeossoyyKy9fEWNZPtb32ZPMixcv3IMHDzrfhU1vLnj//r37/PmzibtYrKiwpULywielJSnKSIQM7kUoP7dRChPrJE9Gt4myhFGovrm7439GA7OU/lhCg7wmhnnufj4Fsfpu1Ly0kfo6Hp+unV4TeZiAwE8TXpyjrMObRB5zlORjLWJusb38aJKWl29tOgVRhDkXcTL2AC2i8Xjp8clRjHE1e5Kh153cvHnT7e3t+ePSxYsXHf3evXvXx2kuXLjgy9+8eeP29/dNzAVBWEZuKbYyiFIwKwrvRkxOWolDG2kUpmFRRaFQmRTqyl6OrP69tf96U1FDzlXOUVRMRsRZl0wgYl1io/r4Ql8aFzmecgQZS79e2uCLa9/K0o9SnP8e52sRg67bS55B2iTH0kstf4RrkEwkma53YdMrU169euU+fPhgQi6U2Vp0azE1ycR2gliULFvRpQEGI2KD05/lrsWKnOswmZmT7H2zRaF7t48VS3wUDr6GL+exR2Ip21DUwXi0wLonh9aPZPxacDwmEoleH7Mvay5iALwu5VqJCuqiD95SR5KA6lhSzUFfQDKRZLrehT0FyWgF9auqlMCsE7MJfFwKJNNXQVl3WLGzF8Aly3/2Ufo+UrOc5pxajKYvyXR6CEF2pyej1oVno9dneZLhdVhm/TJOPI7mZwtefh5jrHmzx/IOSCaSTNe7sFdPMrZiB+MqztfeiJQCRoVnktGxHl5sU+G50H8GZe3vzXQpbjFm0cdyF8Fo1936Sf28iD1WX7+IWZhzVkTUHJG9FoJArHWIcZoyoGz2H+tpEksB6VYC7MI7E4UYZ5qcjZc8QqfKo38ByUSS6XoX9upJxsgIMXksyuyIVrR4Leq0y0oEYhhaIDRFYDV183JKQonj0XGImpy28iifjpBp7L6u0Y9R1zZyo60w/FCuSUAYb1ybsk4gODq+ZQzt/u3sUmif25qQNPAO5JE2GGrUGJs13yC9bXxm3wNugmRaSIbfhX316lX38OFDt7u764iIrB+xWHGRhVH4e3m38TK8wpT3ojLwOd/vyIYS8fEo1lu7HJ7nKBWe5GelD3ELMR6qUBhliAOVY7Fm2XJPy9EZH6OZwMsoz7fi/AvDbZZxXGbdbSoD6+pH45Px60EyNAhj3r6/mieV2haEEsfN8Tj9KdbO6DdjEr9peSbp2/NsyBrhxuxJ5v79++727duNd2E/fvzYnT9/3j169Mi9fPnS0cN6Hz9+HAHysUW0uMJjdwN5IyLwHayZJ6KC6EacnRY1e5Ih4qDnZPS7sM+dO+eePXvmH8RjL4biNt/yR++UNJZwbxpl+ZZz/9f1TR6J6WFMM1Py5LL3tto+Z08yq4V3fOnazS9jAKP0pl3tdHzjYwl9HvNoNcoA/z1CpjR0gdrEBAeSEejjAggAgbERAMmMjSjkAQEgIBAAyQg4cAEEgMDYCIBkxkYU8oAAEBAIgGQEHLgAAkBgbARmQzI0UfwCA+jAt9GBsYlriLzFkMZoCwSAABCoIQCSqSGEciAABAYhAJIZBB8aAwEgUEMAJFNDCOVAAAgMQgAkMwg+NAYCQKCGAEimhhDKgQAQGIQASGYQfGgMBIBADQGQTA0hlAMBIDAIAZDMIPjQGAgAgRoCIJkaQigHAkBgEAIgmUHwoTEQAAI1BEAyNYRQDgSAwCAEQDKD4ENjIAAEagiAZGoIoRwIAIFBCIBkBsGHxkAACNQQAMnUEEI5EAACgxAAyQyCD42BABCoIQCSqSGEciAABAYhAJIZBB8aAwEgUEMAJFNDCOVAAAgMQuAfXT+4nIU+VUIAAAAASUVORK5CYII=;" vertex="1" parent="1">
                    <mxGeometry x="480" y="-80" width="281" height="487" as="geometry"/>
                </mxCell>
                <mxCell id="14" style="edgeStyle=none;sketch=1;hachureGap=4;jiggle=2;curveFitting=1;html=1;entryX=0;entryY=0.5;entryDx=0;entryDy=0;fontFamily=Architects Daughter;fontSource=https%3A%2F%2Ffonts.googleapis.com%2Fcss%3Ffamily%3DArchitects%2BDaughter;fontSize=16;" edge="1" parent="1" source="8" target="11">
                    <mxGeometry relative="1" as="geometry"/>
                </mxCell>
                <mxCell id="8" value="Trip to UK&lt;br&gt;LIke: 45&lt;br&gt;&amp;lt;button&amp;gt;like&amp;lt;/button&amp;gt;" style="whiteSpace=wrap;html=1;aspect=fixed;labelBackgroundColor=default;sketch=1;hachureGap=4;jiggle=2;curveFitting=1;fontFamily=Architects Daughter;fontSource=https%3A%2F%2Ffonts.googleapis.com%2Fcss%3Ffamily%3DArchitects%2BDaughter;fontSize=20;" vertex="1" parent="1">
                    <mxGeometry x="-480" y="-550" width="220" height="220" as="geometry"/>
                </mxCell>
                <mxCell id="16" style="edgeStyle=none;sketch=1;hachureGap=4;jiggle=2;curveFitting=1;html=1;entryX=0;entryY=0.5;entryDx=0;entryDy=0;fontFamily=Architects Daughter;fontSource=https%3A%2F%2Ffonts.googleapis.com%2Fcss%3Ffamily%3DArchitects%2BDaughter;fontSize=16;" edge="1" parent="1" source="10" target="13">
                    <mxGeometry relative="1" as="geometry"/>
                </mxCell>
                <mxCell id="17" value="NE" style="edgeLabel;html=1;align=center;verticalAlign=middle;resizable=0;points=[];fontSize=20;fontFamily=Architects Daughter;" vertex="1" connectable="0" parent="16">
                    <mxGeometry x="-0.3006" y="-3" relative="1" as="geometry">
                        <mxPoint as="offset"/>
                    </mxGeometry>
                </mxCell>
                <mxCell id="18" style="edgeStyle=orthogonalEdgeStyle;sketch=1;hachureGap=4;jiggle=2;curveFitting=1;html=1;fontFamily=Architects Daughter;fontSource=https%3A%2F%2Ffonts.googleapis.com%2Fcss%3Ffamily%3DArchitects%2BDaughter;fontSize=16;entryX=0;entryY=0.5;entryDx=0;entryDy=0;" edge="1" parent="1" source="10" target="20">
                    <mxGeometry relative="1" as="geometry">
                        <mxPoint x="400" y="-710" as="targetPoint"/>
                    </mxGeometry>
                </mxCell>
                <mxCell id="19" value="TAIP" style="edgeLabel;html=1;align=center;verticalAlign=middle;resizable=0;points=[];fontSize=20;fontFamily=Architects Daughter;" vertex="1" connectable="0" parent="18">
                    <mxGeometry x="-0.2441" relative="1" as="geometry">
                        <mxPoint as="offset"/>
                    </mxGeometry>
                </mxCell>
                <mxCell id="24" style="edgeStyle=orthogonalEdgeStyle;sketch=1;hachureGap=4;jiggle=2;curveFitting=1;html=1;entryX=0.5;entryY=1;entryDx=0;entryDy=0;fontFamily=Architects Daughter;fontSource=https%3A%2F%2Ffonts.googleapis.com%2Fcss%3Ffamily%3DArchitects%2BDaughter;fontSize=16;" edge="1" parent="1" source="10" target="22">
                    <mxGeometry relative="1" as="geometry"/>
                </mxCell>
                <mxCell id="10" value="Ar as jau buvau palaikines" style="rhombus;whiteSpace=wrap;html=1;labelBackgroundColor=default;sketch=1;hachureGap=4;jiggle=2;curveFitting=1;fontFamily=Architects Daughter;fontSource=https%3A%2F%2Ffonts.googleapis.com%2Fcss%3Ffamily%3DArchitects%2BDaughter;fontSize=20;" vertex="1" parent="1">
                    <mxGeometry x="220" y="-520" width="310" height="160" as="geometry"/>
                </mxCell>
                <mxCell id="15" style="edgeStyle=none;sketch=1;hachureGap=4;jiggle=2;curveFitting=1;html=1;entryX=0;entryY=0.5;entryDx=0;entryDy=0;fontFamily=Architects Daughter;fontSource=https%3A%2F%2Ffonts.googleapis.com%2Fcss%3Ffamily%3DArchitects%2BDaughter;fontSize=16;" edge="1" parent="1" source="11" target="10">
                    <mxGeometry relative="1" as="geometry"/>
                </mxCell>
                <mxCell id="11" value="Paspaudizau LIKE" style="rounded=0;whiteSpace=wrap;html=1;labelBackgroundColor=default;sketch=1;hachureGap=4;jiggle=2;curveFitting=1;fontFamily=Architects Daughter;fontSource=https%3A%2F%2Ffonts.googleapis.com%2Fcss%3Ffamily%3DArchitects%2BDaughter;fontSize=20;" vertex="1" parent="1">
                    <mxGeometry x="-70" y="-470" width="180" height="60" as="geometry"/>
                </mxCell>
                <mxCell id="13" value="Tos keliones likes 45 + 1" style="rounded=0;whiteSpace=wrap;html=1;labelBackgroundColor=default;sketch=1;hachureGap=4;jiggle=2;curveFitting=1;fontFamily=Architects Daughter;fontSource=https%3A%2F%2Ffonts.googleapis.com%2Fcss%3Ffamily%3DArchitects%2BDaughter;fontSize=20;" vertex="1" parent="1">
                    <mxGeometry x="680" y="-470" width="180" height="60" as="geometry"/>
                </mxCell>
                <mxCell id="20" value="nieko nedarom" style="rounded=0;whiteSpace=wrap;html=1;labelBackgroundColor=default;sketch=1;hachureGap=4;jiggle=2;curveFitting=1;fontFamily=Architects Daughter;fontSource=https%3A%2F%2Ffonts.googleapis.com%2Fcss%3Ffamily%3DArchitects%2BDaughter;fontSize=20;" vertex="1" parent="1">
                    <mxGeometry x="520" y="-740" width="180" height="60" as="geometry"/>
                </mxCell>
                <mxCell id="21" value="nuimti like" style="rounded=0;whiteSpace=wrap;html=1;labelBackgroundColor=default;sketch=1;hachureGap=4;jiggle=2;curveFitting=1;fontFamily=Architects Daughter;fontSource=https%3A%2F%2Ffonts.googleapis.com%2Fcss%3Ffamily%3DArchitects%2BDaughter;fontSize=20;" vertex="1" parent="1">
                    <mxGeometry x="550" y="-900" width="180" height="60" as="geometry"/>
                </mxCell>
                <mxCell id="23" style="edgeStyle=orthogonalEdgeStyle;sketch=1;hachureGap=4;jiggle=2;curveFitting=1;html=1;entryX=0;entryY=0.5;entryDx=0;entryDy=0;fontFamily=Architects Daughter;fontSource=https%3A%2F%2Ffonts.googleapis.com%2Fcss%3Ffamily%3DArchitects%2BDaughter;fontSize=16;" edge="1" parent="1" source="22" target="21">
                    <mxGeometry relative="1" as="geometry"/>
                </mxCell>
                <mxCell id="22" value="Jei isiminti skelbimai" style="rhombus;whiteSpace=wrap;html=1;labelBackgroundColor=default;sketch=1;hachureGap=4;jiggle=2;curveFitting=1;fontFamily=Architects Daughter;fontSource=https%3A%2F%2Ffonts.googleapis.com%2Fcss%3Ffamily%3DArchitects%2BDaughter;fontSize=20;" vertex="1" parent="1">
                    <mxGeometry x="270" y="-950" width="210" height="160" as="geometry"/>
                </mxCell>
                <mxCell id="25" value="TripID" style="rounded=0;whiteSpace=wrap;html=1;labelBackgroundColor=default;sketch=1;hachureGap=4;jiggle=2;curveFitting=1;fontFamily=Architects Daughter;fontSource=https%3A%2F%2Ffonts.googleapis.com%2Fcss%3Ffamily%3DArchitects%2BDaughter;fontSize=20;" vertex="1" parent="1">
                    <mxGeometry x="-150" y="-820" width="120" height="50" as="geometry"/>
                </mxCell>
                <mxCell id="26" value="UserId" style="rounded=0;whiteSpace=wrap;html=1;labelBackgroundColor=default;sketch=1;hachureGap=4;jiggle=2;curveFitting=1;fontFamily=Architects Daughter;fontSource=https%3A%2F%2Ffonts.googleapis.com%2Fcss%3Ffamily%3DArchitects%2BDaughter;fontSize=20;" vertex="1" parent="1">
                    <mxGeometry x="-30" y="-820" width="120" height="50" as="geometry"/>
                </mxCell>
                <mxCell id="27" value="Reactions" style="rounded=0;whiteSpace=wrap;html=1;labelBackgroundColor=default;sketch=1;hachureGap=4;jiggle=2;curveFitting=1;fontFamily=Architects Daughter;fontSource=https%3A%2F%2Ffonts.googleapis.com%2Fcss%3Ffamily%3DArchitects%2BDaughter;fontSize=20;" vertex="1" parent="1">
                    <mxGeometry x="130" y="-820" width="120" height="50" as="geometry"/>
                </mxCell>
                <mxCell id="28" value="1" style="rounded=0;whiteSpace=wrap;html=1;labelBackgroundColor=default;sketch=1;hachureGap=4;jiggle=2;curveFitting=1;fontFamily=Architects Daughter;fontSource=https%3A%2F%2Ffonts.googleapis.com%2Fcss%3Ffamily%3DArchitects%2BDaughter;fontSize=20;" vertex="1" parent="1">
                    <mxGeometry x="-30" y="-770" width="120" height="50" as="geometry"/>
                </mxCell>
                <mxCell id="29" value="1" style="rounded=0;whiteSpace=wrap;html=1;labelBackgroundColor=default;sketch=1;hachureGap=4;jiggle=2;curveFitting=1;fontFamily=Architects Daughter;fontSource=https%3A%2F%2Ffonts.googleapis.com%2Fcss%3Ffamily%3DArchitects%2BDaughter;fontSize=20;" vertex="1" parent="1">
                    <mxGeometry x="-150" y="-770" width="120" height="50" as="geometry"/>
                </mxCell>
                <mxCell id="30" value="1" style="rounded=0;whiteSpace=wrap;html=1;labelBackgroundColor=default;sketch=1;hachureGap=4;jiggle=2;curveFitting=1;fontFamily=Architects Daughter;fontSource=https%3A%2F%2Ffonts.googleapis.com%2Fcss%3Ffamily%3DArchitects%2BDaughter;fontSize=20;" vertex="1" parent="1">
                    <mxGeometry x="-30" y="-720" width="120" height="50" as="geometry"/>
                </mxCell>
                <mxCell id="31" value="2" style="rounded=0;whiteSpace=wrap;html=1;labelBackgroundColor=default;sketch=1;hachureGap=4;jiggle=2;curveFitting=1;fontFamily=Architects Daughter;fontSource=https%3A%2F%2Ffonts.googleapis.com%2Fcss%3Ffamily%3DArchitects%2BDaughter;fontSize=20;" vertex="1" parent="1">
                    <mxGeometry x="-150" y="-720" width="120" height="50" as="geometry"/>
                </mxCell>
                <mxCell id="32" value="1" style="rounded=0;whiteSpace=wrap;html=1;labelBackgroundColor=default;sketch=1;hachureGap=4;jiggle=2;curveFitting=1;fontFamily=Architects Daughter;fontSource=https%3A%2F%2Ffonts.googleapis.com%2Fcss%3Ffamily%3DArchitects%2BDaughter;fontSize=20;" vertex="1" parent="1">
                    <mxGeometry x="-30" y="-670" width="120" height="50" as="geometry"/>
                </mxCell>
                <mxCell id="33" value="3" style="rounded=0;whiteSpace=wrap;html=1;labelBackgroundColor=default;sketch=1;hachureGap=4;jiggle=2;curveFitting=1;fontFamily=Architects Daughter;fontSource=https%3A%2F%2Ffonts.googleapis.com%2Fcss%3Ffamily%3DArchitects%2BDaughter;fontSize=20;" vertex="1" parent="1">
                    <mxGeometry x="-150" y="-670" width="120" height="50" as="geometry"/>
                </mxCell>
                <mxCell id="34" value="2" style="rounded=0;whiteSpace=wrap;html=1;labelBackgroundColor=default;sketch=1;hachureGap=4;jiggle=2;curveFitting=1;fontFamily=Architects Daughter;fontSource=https%3A%2F%2Ffonts.googleapis.com%2Fcss%3Ffamily%3DArchitects%2BDaughter;fontSize=20;" vertex="1" parent="1">
                    <mxGeometry x="-30" y="-620" width="120" height="50" as="geometry"/>
                </mxCell>
                <mxCell id="35" value="1" style="rounded=0;whiteSpace=wrap;html=1;labelBackgroundColor=default;sketch=1;hachureGap=4;jiggle=2;curveFitting=1;fontFamily=Architects Daughter;fontSource=https%3A%2F%2Ffonts.googleapis.com%2Fcss%3Ffamily%3DArchitects%2BDaughter;fontSize=20;" vertex="1" parent="1">
                    <mxGeometry x="-150" y="-620" width="120" height="50" as="geometry"/>
                </mxCell>
                <mxCell id="36" value="id" style="rounded=0;whiteSpace=wrap;html=1;labelBackgroundColor=default;sketch=1;hachureGap=4;jiggle=2;curveFitting=1;fontFamily=Architects Daughter;fontSource=https%3A%2F%2Ffonts.googleapis.com%2Fcss%3Ffamily%3DArchitects%2BDaughter;fontSize=20;" vertex="1" parent="1">
                    <mxGeometry x="-270" y="-820" width="120" height="50" as="geometry"/>
                </mxCell>
            </root>
        </mxGraphModel>
    </diagram>
</mxfile>